<?xml version="1.0" encoding="utf-8"?>
<!-- Generator: Adobe Illustrator 17.0.0, SVG Export Plug-In . SVG Version: 6.00 Build 0)  -->
<!DOCTYPE svg PUBLIC "-//W3C//DTD SVG 1.1//EN" "http://www.w3.org/Graphics/SVG/1.1/DTD/svg11.dtd">
<svg version="1.1" id="Layer_1" xmlns="http://www.w3.org/2000/svg" xmlns:xlink="http://www.w3.org/1999/xlink" x="0px" y="0px"
	 width="612px" height="792px" viewBox="0 0 612 792" enable-background="new 0 0 612 792" xml:space="preserve">
<linearGradient id="SVGID_1_" gradientUnits="userSpaceOnUse" x1="72.8311" y1="372.0177" x2="513.3076" y2="372.0177" gradientTransform="matrix(1 0 0 -1 8.4 768.1)">
	<stop  offset="0" style="stop-color:#2280C3"/>
	<stop  offset="1" style="stop-color:#1E3A6D"/>
</linearGradient>
<path fill="url(#SVGID_1_)" d="M301.469,376.967c91.031,0,171.497,15.109,220.238,38.231
	c-55.106-14.713-133.384-23.906-220.238-23.906s-165.137,9.193-220.238,23.906C129.972,392.075,210.439,376.967,301.469,376.967z"/>
<linearGradient id="SVGID_2_" gradientUnits="userSpaceOnUse" x1="450.259" y1="407.9673" x2="397.9709" y2="514.0196" gradientTransform="matrix(1 0 0 -1 8.4 768.1)">
	<stop  offset="0" style="stop-color:#8FC73F"/>
	<stop  offset="1" style="stop-color:#5A8F3F"/>
</linearGradient>
<path fill="url(#SVGID_2_)" d="M381.4,279.322l45.245,98.969c9.2,20.124,29.401,26.814,44.893,14.857l0,0
	c15.492-11.953,20.637-38.204,11.432-58.329l-53.453-116.927L381.4,279.322z"/>
<linearGradient id="SVGID_3_" gradientUnits="userSpaceOnUse" x1="235.1897" y1="528.8502" x2="498.7381" y2="323.5271" gradientTransform="matrix(1 0 0 -1 8.4 768.1)">
	<stop  offset="0" style="stop-color:#2280C3"/>
	<stop  offset="1" style="stop-color:#1E3A6D"/>
</linearGradient>
<path fill="url(#SVGID_3_)" d="M301.773,250.54l-57.986-75.243c-2.4-3.948-5.38-7.397-8.896-10.112l0,0
	c-15.492-11.953-35.693-5.272-44.897,14.857l-38.925,85.147l0,0c31.389-61.214,73.626,5.637,73.626,5.637l52.413,68.017
	c0.408,0.59,0.828,1.171,1.26,1.738l0,0c4.404,5.727,9.76,9.454,15.42,11.21c10.776,3.413,22.641-0.324,31.009-11.21l0,0
	c0.38-0.491,0.744-0.99,1.096-1.499l65.054-83.049C347.895,310.993,301.773,250.54,301.773,250.54z"/>
<linearGradient id="SVGID_4_" gradientUnits="userSpaceOnUse" x1="420.9609" y1="616.8038" x2="321.4572" y2="506.7146" gradientTransform="matrix(1 0 0 -1 8.4 768.1)">
	<stop  offset="0" style="stop-color:#2280C3"/>
	<stop  offset="1" style="stop-color:#1E3A6D"/>
</linearGradient>
<path fill="url(#SVGID_4_)" d="M396.468,129.655L301.773,250.54c0,0,46.121,60.454,89.178,5.493l52.637-67.198
	c4.556,10.152,8.464,21.245,11.748,33.324l80.31-216.711L371.363,115.861C380.408,119.674,388.768,124.262,396.468,129.655z"/>
<linearGradient id="SVGID_5_" gradientUnits="userSpaceOnUse" x1="146.082" y1="429.2958" x2="189.8227" y2="513.4967" gradientTransform="matrix(1 0 0 -1 8.4 768.1)">
	<stop  offset="0" style="stop-color:#2280C3"/>
	<stop  offset="1" style="stop-color:#1E3A6D"/>
</linearGradient>
<path fill="url(#SVGID_5_)" d="M151.069,265.19l-31.833,69.624c-9.2,20.124-4.056,46.376,11.432,58.329l0,0
	c15.492,11.957,35.693,5.272,44.893-14.857l49.129-107.46C224.691,270.826,182.458,203.975,151.069,265.19L151.069,265.19z"/>
<linearGradient id="SVGID_6_" gradientUnits="userSpaceOnUse" x1="178.8341" y1="433.9772" x2="407.3005" y2="433.9772" gradientTransform="matrix(1 0 0 -1 8.4 768.1)">
	<stop  offset="0" style="stop-color:#2280C3"/>
	<stop  offset="1" style="stop-color:#1E3A6D"/>
</linearGradient>
<polygon fill="url(#SVGID_6_)" points="301.469,384.976 226.659,294.809 187.234,365.869 224.979,283.27 301.469,375.467 
	377.959,283.27 415.701,365.869 376.279,294.809 "/>
<g>
	
		<linearGradient id="SVGID_7_" gradientUnits="userSpaceOnUse" x1="171.9839" y1="290.4548" x2="171.9839" y2="235.6842" gradientTransform="matrix(1 0 0 -1 8.4 768.1)">
		<stop  offset="0" style="stop-color:#8FC73F"/>
		<stop  offset="1" style="stop-color:#5A8F3F"/>
	</linearGradient>
	<path fill="url(#SVGID_7_)" d="M337.562,463.406l-15.448,44.048l-15.46-44.048h-16.084l0.324,0.923l23.177,65.5l-1.54,4.489
		c-0.652,1.895-1.684,4.245-2.984,5.7c-0.756,0.846-1.768,1.693-2.896,1.499l-2.256-0.392l-7.212-1.026v16.054l3.368,0.648
		c0.856,0.162,1.708,0.243,2.564,0.383c1.012,0.167,2.008,0.306,3.032,0.306c4.376,0,8.62-1.171,12.152-4.187
		c3.492-2.98,5.968-7.199,7.584-11.741l27.777-78.151h-16.096V463.406z M283.553,472.167c-5.44-7.244-12.832-10.409-21.181-10.409
		l-0.516,0.005c-8.472,0.126-15.976,3.372-21.481,10.818c-6.032,8.153-7.856,18.841-7.856,29.191
		c0,10.193,1.828,20.646,7.756,28.674c5.524,7.482,13.028,10.782,21.581,10.823h0.176c7.064,0,13.556-2.233,19.017-7.334
		c5.316-4.966,8.388-11.44,9.244-19.161l0.572-5.123h-14.864l-0.54,3.854c-0.488,3.494-1.788,6.379-4.244,8.612
		c-2.492,2.269-5.444,3.129-8.62,3.129c-0.252,0-0.5-0.005-0.748-0.018c-3.968-0.185-7.164-1.877-9.724-5.447
		c-2.54-3.548-3.72-7.96-4.152-12.439h43.241v-7.068c0-2.35-0.096-4.709-0.324-7.055
		C290.149,485.579,288.049,478.15,283.553,472.167z M248.068,492.062c0.556-3.602,1.892-6.87,4.22-9.738
		c2.596-3.192,5.776-4.601,9.568-4.669l0.292-0.005c3.792,0,6.952,1.333,9.46,4.583c2.236,2.899,3.496,6.226,4.04,9.828
		C275.649,492.062,248.068,492.062,248.068,492.062z M128.564,461.758h-0.052c-9.62,0-17.736,4.088-23.637,12.714
		c-5.38,7.865-7.548,17.198-7.548,27.039c0,9.769,2.208,18.994,7.552,26.787c5.92,8.635,13.968,12.844,23.637,12.844h0.052
		c9.64-0.013,17.645-4.245,23.581-12.831c5.384-7.789,7.656-16.995,7.656-26.801c0-9.878-2.236-19.192-7.656-27.057
		C146.229,465.887,138.161,461.772,128.564,461.758z M140.297,518.093c-2.948,4.624-6.66,7.005-11.736,7.023h-0.052
		c-5.092,0-8.84-2.31-11.76-6.983c-3.108-4.979-4.296-10.719-4.296-16.748c0-6.033,1.124-11.876,4.28-16.851
		c2.928-4.624,6.724-6.879,11.772-6.879h0.052c5.04,0.013,8.8,2.283,11.732,6.888c3.172,4.975,4.368,10.778,4.368,16.842
		C144.661,507.418,143.453,513.149,140.297,518.093z M220.523,473.392c-2.104-3.912-5.096-6.884-8.78-8.824
		c-3.924-2.071-8.26-2.809-12.564-2.809c-4.668,0-9.268,1.017-13.372,3.602c-0.732,0.464-1.436,0.963-2.108,1.504v-3.458h-14.812
		v75.977h14.908v-43.918c0-4.795,0.852-9.751,3.836-13.376c2.716-3.296,6.296-4.439,10.216-4.439c2.688,0,6.828,0.387,8.6,3.07
		c1.844,2.796,2.1,9.049,2.1,12.363v46.299h14.908v-47.182c0-3.246,0.008-6.812-0.38-10.026
		C222.707,479.127,221.947,476.043,220.523,473.392z M46.766,507.927l-22.129-70.304H7.109v101.76h15.48v-57.608l17.965,57.613
		h12.22l18.085-57.725v57.725h15.48v-101.76H68.803L46.766,507.927z"/>
</g>
<g>
	<g>
		
			<linearGradient id="SVGID_8_" gradientUnits="userSpaceOnUse" x1="476.5725" y1="297.1615" x2="476.5725" y2="236.8016" gradientTransform="matrix(1 0 0 -1 8.4 768.1)">
			<stop  offset="0" style="stop-color:#2280C3"/>
			<stop  offset="1" style="stop-color:#1E3A6D"/>
		</linearGradient>
		<path fill="url(#SVGID_8_)" d="M602.118,474.459c-5.916-8.572-13.984-12.687-23.585-12.7h-0.052
			c-9.62,0-17.737,4.088-23.637,12.714c-5.38,7.865-7.548,17.198-7.548,27.039c0,9.769,2.208,18.994,7.548,26.787
			c5.924,8.635,13.968,12.844,23.637,12.844h0.052c9.64-0.013,17.644-4.245,23.581-12.831c5.384-7.789,7.656-16.995,7.656-26.801
			C609.77,491.634,607.538,482.319,602.118,474.459z M590.269,518.093c-2.948,4.624-6.66,7.005-11.736,7.023h-0.052
			c-5.092,0-8.84-2.31-11.76-6.983c-3.108-4.979-4.296-10.719-4.296-16.748c0-6.033,1.124-11.876,4.28-16.851
			c2.928-4.624,6.724-6.879,11.772-6.879h0.052c5.04,0.013,8.8,2.283,11.736,6.888c3.164,4.975,4.364,10.778,4.364,16.842
			C594.634,507.418,593.426,513.149,590.269,518.093z M481.63,461.758h-0.048c-9.624,0-17.74,4.088-23.641,12.714
			c-5.38,7.865-7.548,17.198-7.548,27.039c0,9.769,2.208,18.994,7.552,26.787c5.92,8.635,13.968,12.844,23.637,12.844h0.048
			c9.64-0.013,17.644-4.245,23.581-12.831c5.384-7.789,7.656-16.995,7.656-26.801c0-9.878-2.236-19.192-7.652-27.057
			C499.295,465.887,491.227,461.772,481.63,461.758z M493.363,518.093c-2.948,4.624-6.656,7.005-11.736,7.023h-0.048
			c-5.092,0-8.844-2.31-11.764-6.983c-3.108-4.979-4.296-10.719-4.296-16.748c0-6.033,1.124-11.876,4.28-16.851
			c2.928-4.624,6.724-6.879,11.776-6.879h0.048c5.04,0.013,8.8,2.283,11.736,6.888c3.168,4.975,4.364,10.778,4.364,16.842
			C497.731,507.418,496.519,513.149,493.363,518.093z M522.523,537.591c0,0.707-0.08,2.877-0.492,3.471
			c-0.36,0.482-1.02,0.509-1.532,0.432l-7.236-1.044v16.09l5.632,0.662l2.236,0.257c4.732,0.549,9.328-1.094,12.512-5.173
			c2.948-3.777,3.792-8.937,3.792-13.821v-75.058h-14.908v74.185H522.523z M522.523,458.431h14.908v-20.809h-14.908V458.431z
			 M399.84,507.927l-22.133-70.304h-17.533v101.76h15.48v-57.608l17.965,57.613h12.22l18.081-57.725v57.725h15.48v-101.76h-17.533
			L399.84,507.927z"/>
	</g>
</g>
<g>
	
		<linearGradient id="SVGID_9_" gradientUnits="userSpaceOnUse" x1="351.795" y1="197.4212" x2="505.1674" y2="197.4212" gradientTransform="matrix(1 0 0 -1 8.4 768.1)">
		<stop  offset="0" style="stop-color:#8FC73F"/>
		<stop  offset="1" style="stop-color:#5A8F3F"/>
	</linearGradient>
	<path fill="url(#SVGID_9_)" d="M425.649,555.824c-2.128-0.873-4.436-1.301-6.924-1.292c-1.096,0.005-2.236,0.095-3.408,0.275
		c-3.808,0.576-6.928,2.44-9.344,5.574c-1.488,1.891-2.584,4.236-3.276,7.064c-0.708,2.827-1.052,5.655-1.052,8.482
		c0,3.458,0.42,6.78,1.252,9.972c0.844,3.205,2.24,5.736,4.188,7.626c1.86,1.873,4.348,3.214,7.468,4.007
		c1.396,0.347,2.784,0.522,4.172,0.527c1.712,0.005,3.408-0.252,5.104-0.77c3.44-0.842,6.284-2.989,8.516-6.433
		c1.02-1.675,1.856-3.728,2.508-6.136c0.656-2.4,0.976-5.281,0.976-8.63c0-4.61-0.788-8.644-2.372-12.088
		C431.781,560.128,429.177,557.391,425.649,555.824z M424.533,585.349c-1.116,1.886-2.404,3.07-3.848,3.539
		c-0.656,0.216-1.312,0.32-1.96,0.315c-0.768-0.005-1.532-0.162-2.288-0.473c-1.392-0.576-2.372-1.274-2.928-2.12
		c-1.392-1.891-2.192-5.213-2.372-9.972c-0.192-4.759,0.692-8.351,2.64-10.76c0.656-0.725,1.68-1.328,3.072-1.81
		c0.624-0.212,1.248-0.32,1.872-0.333c0.776-0.014,1.548,0.122,2.32,0.41c1.392,0.522,2.62,1.733,3.688,3.62
		c1.076,1.877,1.612,4.705,1.612,8.482C426.245,580.432,425.637,583.476,424.533,585.349z M500.171,571.532l13.252-16.014h-11.72
		l-11.86,15.384v-22.447c0-1.364-0.46-2.571-1.392-3.615c-0.928-1.044-2.048-1.567-3.344-1.567h-5.024v54.025h9.76v-15.87
		c0-0.828,0.512-1.459,1.536-1.873c1.024-0.419,2.228,0.774,3.632,3.606l6.836,14.136h11.72L500.171,571.532z M469.39,557.085
		c-0.884,1.044-1.324,2.31-1.324,3.768v21.362c0,2.508-0.68,4.34-2.024,5.497c-1.348,1.152-2.86,1.729-4.536,1.729
		c-1.684,0-3.168-0.576-4.468-1.729c-1.296-1.153-1.952-2.989-1.952-5.497v-26.697h-9.764v24.5c0,7.221,1.656,11.993,4.956,14.299
		c3.296,2.305,6.956,3.552,10.956,3.768c4.096,0,7.86-1.152,11.3-3.458c3.44-2.305,5.168-7.167,5.168-14.605v-24.5h-4.88
		C471.41,555.518,470.282,556.04,469.39,557.085z M437.369,591.944v5.348h7.68v-8.644h-4.752
		C438.345,588.649,437.369,589.743,437.369,591.944z M391.456,585.205c-0.564,0.522-0.932,0.936-1.12,1.243
		c-0.276,0.324-0.536,0.603-0.76,0.873c-0.24,0.252-0.488,0.441-0.776,0.549c-1.108,0.738-2.464,1.099-4.04,1.099
		c-2.428,0-4.236-0.846-5.444-2.521c-1.676-1.981-2.512-5.389-2.512-10.197c0-4.826,0.836-8.284,2.512-10.373
		c1.3-1.463,2.98-2.201,5.016-2.201c2.24,0,3.952,0.738,5.168,2.201c0.464,0.522,0.928,1.31,1.392,2.355h9.764
		c-0.736-3.043-1.952-5.709-3.62-8.014c-3.072-3.768-7.396-5.655-12.976-5.655c-5.304,0-9.448,1.94-12.42,5.817
		c-2.148,2.805-3.496,6.438-4.044,10.877c-0.188,1.517-0.284,3.129-0.284,4.831c0,1.76,0.096,3.417,0.284,4.97
		c0.56,4.651,1.952,8.383,4.184,11.206c2.976,3.872,7.108,5.817,12.416,5.817c4.372,0,8.004-1.207,10.884-3.62
		c2.88-2.305,4.832-5.655,5.86-10.053h-6.98C392.844,584.412,392.012,584.678,391.456,585.205z M360.195,591.944v5.348h7.68v-8.644
		h-4.752C361.171,588.649,360.195,589.743,360.195,591.944z"/>
</g>
</svg>
