<?xml version="1.0" encoding="utf-8"?>
<!-- Generator: Adobe Illustrator 17.0.1, SVG Export Plug-In . SVG Version: 6.00 Build 0)  -->
<!DOCTYPE svg PUBLIC "-//W3C//DTD SVG 1.1//EN" "http://www.w3.org/Graphics/SVG/1.1/DTD/svg11.dtd">
<svg version="1.1" id="Layer_1" xmlns="http://www.w3.org/2000/svg" xmlns:xlink="http://www.w3.org/1999/xlink" x="0px" y="0px"
	 width="600px" height="315px" viewBox="6 238.5 600 315" enable-background="new 6 238.5 600 315" xml:space="preserve">
<linearGradient id="SVGID_1_" gradientUnits="userSpaceOnUse" x1="104.4558" y1="254.6576" x2="334.5927" y2="254.6576" gradientTransform="matrix(1 0 0 1 67.38 190.62)">
	<stop  offset="0" style="stop-color:#2280C3"/>
	<stop  offset="1" style="stop-color:#1E3A6D"/>
</linearGradient>
<path fill="url(#SVGID_1_)" d="M286.904,435.29c47.561,0,89.603,7.894,115.069,19.975c-28.791-7.687-69.69-12.49-115.068-12.49
	s-86.28,4.803-115.068,12.49C197.302,443.184,239.343,435.29,286.904,435.29z"/>
<linearGradient id="SVGID_2_" gradientUnits="userSpaceOnUse" x1="301.6517" y1="235.8748" x2="274.3326" y2="180.4653" gradientTransform="matrix(1 0 0 1 67.38 190.62)">
	<stop  offset="0" style="stop-color:#8FC73F"/>
	<stop  offset="1" style="stop-color:#5A8F3F"/>
</linearGradient>
<path fill="url(#SVGID_2_)" d="M328.666,384.273l23.639,51.709c4.807,10.514,15.361,14.01,23.455,7.762l0,0
	c8.094-6.245,10.782-19.961,5.973-30.475l-27.928-61.091L328.666,384.273z"/>
<linearGradient id="SVGID_3_" gradientUnits="userSpaceOnUse" x1="189.2837" y1="172.7168" x2="326.9807" y2="279.9926" gradientTransform="matrix(1 0 0 1 67.38 190.62)">
	<stop  offset="0" style="stop-color:#2280C3"/>
	<stop  offset="1" style="stop-color:#1E3A6D"/>
</linearGradient>
<path fill="url(#SVGID_3_)" d="M287.063,369.236l-30.296-39.312c-1.254-2.063-2.811-3.865-4.648-5.283l0,0
	c-8.094-6.245-18.649-2.754-23.457,7.762l-20.337,44.487l0,0c16.4-31.983,38.468,2.945,38.468,2.945l27.384,35.537
	c0.213,0.308,0.433,0.612,0.658,0.908l0,0c2.301,2.992,5.099,4.939,8.057,5.857c5.63,1.783,11.829-0.169,16.201-5.857l0,0
	c0.199-0.257,0.389-0.517,0.573-0.783l33.989-43.391C311.161,400.821,287.063,369.236,287.063,369.236z"/>
<linearGradient id="SVGID_4_" gradientUnits="userSpaceOnUse" x1="286.3441" y1="126.7631" x2="234.3561" y2="184.2817" gradientTransform="matrix(1 0 0 1 67.38 190.62)">
	<stop  offset="0" style="stop-color:#2280C3"/>
	<stop  offset="1" style="stop-color:#1E3A6D"/>
</linearGradient>
<path fill="url(#SVGID_4_)" d="M336.539,306.076l-49.476,63.159c0,0,24.097,31.586,46.593,2.87l27.501-35.109
	c2.38,5.304,4.422,11.1,6.138,17.411l41.96-113.226l-85.833,57.688C328.148,300.862,332.516,303.259,336.539,306.076z"/>
<linearGradient id="SVGID_5_" gradientUnits="userSpaceOnUse" x1="142.7274" y1="224.7312" x2="165.5807" y2="180.7384" gradientTransform="matrix(1 0 0 1 67.38 190.62)">
	<stop  offset="0" style="stop-color:#2280C3"/>
	<stop  offset="1" style="stop-color:#1E3A6D"/>
</linearGradient>
<path fill="url(#SVGID_5_)" d="M208.324,376.89l-16.632,36.377c-4.807,10.514-2.119,24.23,5.973,30.475l0,0
	c8.094,6.247,18.649,2.754,23.455-7.762l25.669-56.145C246.79,379.834,224.724,344.907,208.324,376.89L208.324,376.89z"/>
<linearGradient id="SVGID_6_" gradientUnits="userSpaceOnUse" x1="159.8395" y1="222.2854" x2="279.2074" y2="222.2854" gradientTransform="matrix(1 0 0 1 67.38 190.62)">
	<stop  offset="0" style="stop-color:#2280C3"/>
	<stop  offset="1" style="stop-color:#1E3A6D"/>
</linearGradient>
<polygon fill="url(#SVGID_6_)" points="286.904,439.475 247.818,392.365 227.219,429.492 246.94,386.336 286.904,434.507 
	326.868,386.336 346.587,429.492 325.99,392.365 "/>
<g>
	
		<linearGradient id="SVGID_7_" gradientUnits="userSpaceOnUse" x1="156.2608" y1="297.2719" x2="156.2608" y2="325.8881" gradientTransform="matrix(1 0 0 1 67.38 190.62)">
		<stop  offset="0" style="stop-color:#8FC73F"/>
		<stop  offset="1" style="stop-color:#5A8F3F"/>
	</linearGradient>
	<path fill="url(#SVGID_7_)" d="M305.762,480.452l-8.071,23.014l-8.077-23.014h-8.403l0.169,0.482l12.109,34.222l-0.805,2.345
		c-0.341,0.99-0.88,2.218-1.559,2.978c-0.395,0.442-0.924,0.885-1.513,0.783l-1.179-0.205l-3.768-0.536v8.388l1.76,0.339
		c0.447,0.085,0.892,0.127,1.34,0.2c0.529,0.087,1.049,0.16,1.584,0.16c2.286,0,4.504-0.612,6.349-2.188
		c1.824-1.557,3.118-3.761,3.962-6.134l14.513-40.832h-8.41v-0.003H305.762z M277.544,485.03c-2.842-3.785-6.704-5.438-11.066-5.438
		l-0.27,0.003c-4.426,0.066-8.347,1.762-11.223,5.652c-3.152,4.26-4.105,9.844-4.105,15.252c0,5.326,0.955,10.787,4.052,14.981
		c2.886,3.909,6.807,5.633,11.275,5.655h0.092c3.691,0,7.083-1.167,9.936-3.832c2.777-2.595,4.383-5.977,4.83-10.011l0.299-2.677
		h-7.766l-0.282,2.014c-0.255,1.826-0.934,3.333-2.217,4.5c-1.302,1.185-2.844,1.635-4.504,1.635c-0.132,0-0.261-0.003-0.391-0.009
		c-2.073-0.097-3.743-0.981-5.081-2.846c-1.327-1.854-1.944-4.159-2.169-6.499h22.592v-3.693c0-1.228-0.05-2.46-0.169-3.686
		C280.99,492.037,279.893,488.156,277.544,485.03z M259.004,495.424c0.29-1.882,0.989-3.589,2.205-5.088
		c1.356-1.668,3.018-2.404,4.999-2.439l0.153-0.003c1.981,0,3.632,0.696,4.943,2.394c1.168,1.515,1.827,3.253,2.111,5.135
		C273.414,495.424,259.004,495.424,259.004,495.424z M196.566,479.591h-0.027c-5.026,0-9.267,2.136-12.35,6.643
		c-2.811,4.109-3.944,8.985-3.944,14.127c0,5.104,1.154,9.924,3.946,13.995c3.093,4.512,7.298,6.711,12.35,6.711h0.027
		c5.037-0.007,9.219-2.218,12.32-6.704c2.813-4.07,4-8.879,4-14.003c0-5.161-1.168-10.027-4-14.137
		C205.795,481.749,201.58,479.599,196.566,479.591z M202.696,509.025c-1.54,2.416-3.48,3.66-6.132,3.669h-0.027
		c-2.66,0-4.619-1.207-6.144-3.648c-1.624-2.601-2.245-5.6-2.245-8.75c0-3.152,0.587-6.205,2.236-8.804
		c1.53-2.416,3.513-3.594,6.151-3.594h0.027c2.633,0.007,4.598,1.193,6.13,3.599c1.657,2.599,2.282,5.631,2.282,8.799
		C204.976,503.447,204.345,506.442,202.696,509.025z M244.612,485.67c-1.099-2.044-2.663-3.597-4.587-4.61
		c-2.05-1.082-4.316-1.468-6.564-1.468c-2.439,0-4.842,0.531-6.987,1.882c-0.382,0.242-0.75,0.503-1.101,0.786v-1.807h-7.739v39.696
		h7.789v-22.946c0-2.505,0.445-5.095,2.004-6.989c1.419-1.722,3.29-2.319,5.338-2.319c1.404,0,3.567,0.202,4.493,1.604
		c0.963,1.461,1.097,4.728,1.097,6.459v24.19h7.789v-24.651c0-1.696,0.004-3.559-0.199-5.238
		C245.753,488.666,245.356,487.055,244.612,485.67z M153.829,503.713l-11.562-36.732h-9.158v53.167h8.088V490.05l9.386,30.101h6.385
		l9.449-30.16v30.16h8.088v-53.167h-9.162L153.829,503.713z"/>
</g>
<g>
	<g>
		
			<linearGradient id="SVGID_8_" gradientUnits="userSpaceOnUse" x1="315.3996" y1="293.7679" x2="315.3996" y2="325.3043" gradientTransform="matrix(1 0 0 1 67.38 190.62)">
			<stop  offset="0" style="stop-color:#2280C3"/>
			<stop  offset="1" style="stop-color:#1E3A6D"/>
		</linearGradient>
		<path fill="url(#SVGID_8_)" d="M443.985,486.227c-3.091-4.479-7.306-6.629-12.323-6.635h-0.027c-5.026,0-9.267,2.136-12.35,6.643
			c-2.811,4.109-3.944,8.986-3.944,14.127c0,5.104,1.154,9.924,3.944,13.995c3.095,4.512,7.298,6.711,12.35,6.711h0.027
			c5.037-0.007,9.219-2.218,12.32-6.704c2.813-4.07,4-8.879,4-14.003C447.983,495.201,446.817,490.334,443.985,486.227z
			 M437.795,509.025c-1.54,2.416-3.48,3.66-6.132,3.669h-0.027c-2.66,0-4.619-1.207-6.144-3.648c-1.624-2.601-2.245-5.6-2.245-8.75
			c0-3.152,0.587-6.205,2.236-8.804c1.53-2.416,3.513-3.594,6.151-3.594h0.027c2.633,0.007,4.598,1.193,6.132,3.599
			c1.653,2.599,2.28,5.631,2.28,8.799C440.075,503.447,439.444,506.442,437.795,509.025z M381.034,479.591h-0.025
			c-5.028,0-9.269,2.136-12.352,6.643c-2.811,4.109-3.944,8.985-3.944,14.127c0,5.104,1.154,9.924,3.946,13.995
			c3.093,4.512,7.298,6.711,12.35,6.711h0.025c5.037-0.007,9.219-2.218,12.32-6.704c2.813-4.07,4-8.879,4-14.003
			c0-5.161-1.168-10.027-3.998-14.137C390.263,481.749,386.048,479.599,381.034,479.591z M387.164,509.025
			c-1.54,2.416-3.478,3.66-6.132,3.669h-0.025c-2.66,0-4.621-1.207-6.146-3.648c-1.624-2.601-2.245-5.6-2.245-8.75
			c0-3.152,0.587-6.205,2.236-8.804c1.53-2.416,3.513-3.594,6.153-3.594h0.025c2.633,0.007,4.598,1.193,6.132,3.599
			c1.655,2.599,2.28,5.631,2.28,8.799C389.446,503.447,388.813,506.442,387.164,509.025z M402.399,519.212
			c0,0.369-0.042,1.503-0.257,1.814c-0.188,0.252-0.533,0.266-0.8,0.226l-3.781-0.545v8.407l2.943,0.346l1.168,0.134
			c2.472,0.287,4.874-0.572,6.537-2.703c1.54-1.973,1.981-4.669,1.981-7.221v-39.216h-7.789v38.76L402.399,519.212L402.399,519.212z
			 M402.399,477.853h7.789v-10.872h-7.789V477.853z M338.3,503.713l-11.564-36.732h-9.161v53.167h8.088V490.05l9.386,30.101h6.385
			l9.447-30.16v30.16h8.088v-53.167h-9.161L338.3,503.713z"/>
	</g>
</g>
<g>
	
		<linearGradient id="SVGID_9_" gradientUnits="userSpaceOnUse" x1="250.207" y1="345.8796" x2="330.3398" y2="345.8796" gradientTransform="matrix(1 0 0 1 67.38 190.62)">
		<stop  offset="0" style="stop-color:#8FC73F"/>
		<stop  offset="1" style="stop-color:#5A8F3F"/>
	</linearGradient>
	<path fill="url(#SVGID_9_)" d="M351.785,528.738c-1.112-0.456-2.318-0.68-3.618-0.675c-0.573,0.003-1.168,0.05-1.781,0.144
		c-1.99,0.301-3.62,1.275-4.882,2.912c-0.777,0.988-1.35,2.213-1.712,3.691c-0.37,1.477-0.55,2.955-0.55,4.432
		c0,1.807,0.219,3.542,0.654,5.21c0.441,1.674,1.17,2.997,2.188,3.984c0.972,0.979,2.272,1.679,3.902,2.094
		c0.729,0.181,1.455,0.273,2.18,0.275c0.894,0.003,1.781-0.132,2.667-0.402c1.797-0.44,3.283-1.562,4.449-3.361
		c0.533-0.875,0.97-1.948,1.31-3.206c0.343-1.254,0.51-2.759,0.51-4.509c0-2.409-0.412-4.516-1.239-6.316
		C354.989,530.987,353.628,529.557,351.785,528.738z M351.202,544.164c-0.583,0.985-1.256,1.604-2.01,1.849
		c-0.343,0.113-0.685,0.167-1.024,0.165c-0.401-0.003-0.8-0.085-1.195-0.247c-0.727-0.301-1.239-0.666-1.53-1.108
		c-0.727-0.988-1.145-2.724-1.239-5.21c-0.1-2.486,0.362-4.363,1.379-5.622c0.343-0.379,0.878-0.694,1.605-0.946
		c0.326-0.111,0.652-0.167,0.978-0.174c0.405-0.007,0.809,0.064,1.212,0.214c0.727,0.273,1.369,0.905,1.927,1.891
		c0.562,0.981,0.842,2.458,0.842,4.432C352.096,541.595,351.779,543.186,351.202,544.164z M390.721,536.945l6.924-8.367h-6.123
		l-6.197,8.038v-11.728c0-0.713-0.24-1.343-0.727-1.889c-0.485-0.545-1.07-0.819-1.747-0.819h-2.625v28.227h5.099v-8.292
		c0-0.433,0.267-0.762,0.803-0.979c0.535-0.219,1.164,0.404,1.898,1.884l3.572,7.386h6.123L390.721,536.945z M374.638,529.397
		c-0.462,0.545-0.692,1.207-0.692,1.969v11.161c0,1.31-0.355,2.268-1.057,2.872c-0.704,0.602-1.494,0.903-2.37,0.903
		c-0.88,0-1.655-0.301-2.334-0.903c-0.677-0.602-1.02-1.562-1.02-2.872v-13.948h-5.101v12.801c0,3.773,0.865,6.266,2.589,7.471
		c1.722,1.204,3.634,1.856,5.724,1.969c2.14,0,4.107-0.602,5.904-1.807c1.797-1.204,2.7-3.745,2.7-7.631v-12.801h-2.55
		C375.694,528.578,375.105,528.851,374.638,529.397z M357.908,547.61v2.794h4.013v-4.516h-2.483
		C358.418,545.888,357.908,546.46,357.908,547.61z M333.92,544.089c-0.295,0.273-0.487,0.489-0.585,0.649
		c-0.144,0.169-0.28,0.315-0.397,0.456c-0.125,0.132-0.255,0.23-0.405,0.287c-0.579,0.386-1.287,0.574-2.111,0.574
		c-1.269,0-2.213-0.442-2.844-1.317c-0.876-1.035-1.312-2.816-1.312-5.328c0-2.521,0.437-4.328,1.312-5.42
		c0.679-0.764,1.557-1.15,2.621-1.15c1.17,0,2.065,0.386,2.7,1.15c0.242,0.273,0.485,0.684,0.727,1.23h5.101
		c-0.385-1.59-1.02-2.983-1.891-4.187c-1.605-1.969-3.864-2.955-6.78-2.955c-2.771,0-4.936,1.014-6.489,3.039
		c-1.122,1.466-1.827,3.364-2.113,5.683c-0.098,0.793-0.148,1.635-0.148,2.524c0,0.92,0.05,1.785,0.148,2.597
		c0.293,2.43,1.02,4.38,2.186,5.855c1.555,2.023,3.714,3.039,6.487,3.039c2.284,0,4.182-0.631,5.687-1.891
		c1.505-1.204,2.525-2.955,3.062-5.252h-3.647C334.645,543.675,334.211,543.814,333.92,544.089z M317.587,547.61v2.794h4.013v-4.516
		h-2.483C318.097,545.888,317.587,546.46,317.587,547.61z"/>
</g>
</svg>
