<?xml version="1.0" encoding="utf-8"?>
<!-- Generator: Adobe Illustrator 17.0.0, SVG Export Plug-In . SVG Version: 6.00 Build 0)  -->
<!DOCTYPE svg PUBLIC "-//W3C//DTD SVG 1.1//EN" "http://www.w3.org/Graphics/SVG/1.1/DTD/svg11.dtd">
<svg version="1.1" id="Layer_1" xmlns="http://www.w3.org/2000/svg" xmlns:xlink="http://www.w3.org/1999/xlink" x="0px" y="0px"
	 width="822.047px" height="842px" viewBox="0 0 822.047 842" enable-background="new 0 0 822.047 842" xml:space="preserve">
<g>
	<g>
		<g>
			<linearGradient id="SVGID_1_" gradientUnits="userSpaceOnUse" x1="212.6462" y1="638.3648" x2="214.6461" y2="736.3643">
				<stop  offset="0" style="stop-color:#0081D0"/>
				<stop  offset="1" style="stop-color:#003670"/>
			</linearGradient>
			<path fill-rule="evenodd" clip-rule="evenodd" fill="url(#SVGID_1_)" d="M284.742,694.383c-1.49-4.868-3.264-9.342-5.33-13.435
				l-23.883,27.091c-19.537,22.159-40.467-2.213-40.467-2.213l42.967-48.737c-3.492-2.175-7.285-4.025-11.391-5.562l43.197-25.796
				c-2.844-1.376-6.029-2.148-9.387-2.148H147.846c-11.934,0-21.699,9.765-21.699,21.698V771.11
				c3.777-1.172,7.816-2.27,12.088-3.283c-0.711-0.327-1.41-0.722-2.089-1.186c-7.029-4.82-9.364-15.402-5.188-23.517l14.443-28.071
				c14.244-24.68,33.409,2.274,33.409,2.274l-22.293,43.324c-0.804,1.562-1.792,2.922-2.915,4.066
				c14.129-2.414,30.033-4.013,46.99-4.58c3.498-0.117,7.041-0.19,10.621-0.218l-10.621-11.374l-20.123-21.551l-17.89,28.65
				l17.127-33.301l20.886,22.368l13.822,14.802l34.707-37.17l17.127,33.301l-17.891-28.65l-30.742,32.925
				c21.494,0.165,41.605,1.979,58.957,5.032c-2.147-1.419-4.012-3.472-5.359-6.089l-20.531-39.901l21.836-24.767l24.256,47.141
				c4.174,8.114,1.84,18.697-5.189,23.517c-1.531,1.051-3.164,1.744-4.826,2.102c5.5,1.202,10.647,2.538,15.389,3.992V652.655
				L284.742,694.383z M225.498,743.056c-0.162,0.205-0.326,0.406-0.498,0.604c-3.797,4.388-9.184,5.894-14.072,4.518
				c-2.567-0.707-4.998-2.211-6.996-4.518c-0.197-0.229-0.388-0.462-0.572-0.701l-2.768-3.19l-21.016-24.231
				c0,0-19.166-26.954-33.409-2.273l17.664-34.329c4.175-8.114,13.343-10.81,20.372-5.989c1.595,1.094,2.947,2.484,4.037,4.076
				l12.352,14.241l13.961,16.095c0,0,20.928,24.373,40.465,2.214L225.498,743.056z"/>
		</g>
	</g>
	<linearGradient id="SVGID_2_" gradientUnits="userSpaceOnUse" x1="121.8945" y1="711.5831" x2="306.3984" y2="711.5831">
		<stop  offset="0" style="stop-color:#0081D0"/>
		<stop  offset="1" style="stop-color:#003670"/>
	</linearGradient>
	<path fill-rule="evenodd" clip-rule="evenodd" fill="url(#SVGID_2_)" d="M214.146,619.331h66.303
		c14.281,0,25.949,11.67,25.949,25.95v132.604c0,14.28-11.668,25.95-25.949,25.95h-66.303v-4.252h66.303
		c11.934,0,21.697-9.765,21.697-21.698V645.281c0-11.933-9.764-21.698-21.697-21.698h-66.303V619.331z M147.846,619.331h66.301
		v4.252h-66.301c-11.934,0-21.699,9.765-21.699,21.698v132.604c0,11.934,9.766,21.698,21.699,21.698h66.301v4.252h-66.301
		c-14.281,0-25.951-11.67-25.951-25.95V645.281C121.895,631.001,133.564,619.331,147.846,619.331z"/>
	<linearGradient id="SVGID_3_" gradientUnits="userSpaceOnUse" x1="126.1465" y1="782.6323" x2="302.1465" y2="782.6323">
		<stop  offset="0" style="stop-color:#88E100"/>
		<stop  offset="1" style="stop-color:#5A8E00"/>
	</linearGradient>
	<path fill-rule="evenodd" clip-rule="evenodd" fill="url(#SVGID_3_)" d="M302.146,772.758v5.127
		c0,11.934-9.764,21.698-21.697,21.698H147.846c-11.934,0-21.699-9.765-21.699-21.698v-5.027
		c23.846-4.477,54.639-7.176,88.268-7.176C247.791,765.682,278.377,768.341,302.146,772.758z"/>
</g>
<linearGradient id="SVGID_4_" gradientUnits="userSpaceOnUse" x1="99.7588" y1="214.0152" x2="321.5176" y2="214.0152">
	<stop  offset="0" style="stop-color:#0081D0"/>
	<stop  offset="1" style="stop-color:#003670"/>
</linearGradient>
<path fill-rule="evenodd" clip-rule="evenodd" fill="url(#SVGID_4_)" d="M210.638,205.464c45.829,0,86.341,6.758,110.88,17.102
	c-27.742-6.581-67.152-10.693-110.88-10.693s-83.138,4.112-110.879,10.693C124.297,212.222,164.809,205.464,210.638,205.464z"/>
<linearGradient id="SVGID_5_" gradientUnits="userSpaceOnUse" x1="288.4782" y1="198.5949" x2="264.8122" y2="150.595">
	<stop  offset="0" style="stop-color:#88E100"/>
	<stop  offset="1" style="stop-color:#5A8E00"/>
</linearGradient>
<path fill-rule="evenodd" clip-rule="evenodd" fill="url(#SVGID_5_)" d="M250.879,161.785l22.779,44.271
	c4.631,9.003,14.803,11.994,22.602,6.646l0,0c7.799-5.348,10.389-17.089,5.756-26.092l-26.912-52.303L250.879,161.785z"/>
<linearGradient id="SVGID_6_" gradientUnits="userSpaceOnUse" x1="183.0181" y1="143.8455" x2="312.0195" y2="244.3466">
	<stop  offset="0" style="stop-color:#0081D0"/>
	<stop  offset="1" style="stop-color:#003670"/>
</linearGradient>
<path fill-rule="evenodd" clip-rule="evenodd" fill="url(#SVGID_6_)" d="M210.791,148.912l-29.193-33.658
	c-1.209-1.766-2.709-3.309-4.48-4.523l0,0c-7.799-5.348-17.97-2.358-22.603,6.645l-19.598,38.088l0,0
	c15.803-27.383,37.066,2.522,37.066,2.522l26.389,30.425c0.205,0.264,0.416,0.524,0.635,0.777l0,0
	c2.217,2.561,4.914,4.229,7.763,5.014c5.425,1.526,11.399-0.145,15.612-5.014l0,0c0.191-0.22,0.375-0.443,0.553-0.671l32.752-37.15
	C234.012,175.954,210.791,148.912,210.791,148.912z"/>
<linearGradient id="SVGID_7_" gradientUnits="userSpaceOnUse" x1="274.2015" y1="104.4338" x2="227.2015" y2="156.4339">
	<stop  offset="0" style="stop-color:#0081D0"/>
	<stop  offset="1" style="stop-color:#003670"/>
</linearGradient>
<path fill-rule="evenodd" clip-rule="evenodd" fill="url(#SVGID_7_)" d="M258.465,94.837l-47.674,54.074
	c0,0,23.221,27.042,44.896,2.456l26.5-30.058c2.293,4.541,4.262,9.504,5.914,14.906l40.434-96.94l-82.709,49.392
	C250.379,90.372,254.588,92.425,258.465,94.837z"/>
<linearGradient id="SVGID_8_" gradientUnits="userSpaceOnUse" x1="137.0522" y1="188.5224" x2="157.0522" y2="150.0225">
	<stop  offset="0" style="stop-color:#0081D0"/>
	<stop  offset="1" style="stop-color:#003670"/>
</linearGradient>
<path fill-rule="evenodd" clip-rule="evenodd" fill="url(#SVGID_8_)" d="M134.918,155.464l-16.025,31.145
	c-4.633,9.003-2.043,20.745,5.756,26.092l0,0c7.799,5.348,17.97,2.357,22.603-6.646l24.733-48.069
	C171.984,157.986,150.721,128.082,134.918,155.464L134.918,155.464z"/>
<linearGradient id="SVGID_9_" gradientUnits="userSpaceOnUse" x1="153.127" y1="186.2998" x2="268.1484" y2="186.2998">
	<stop  offset="0" style="stop-color:#0081D0"/>
	<stop  offset="1" style="stop-color:#003670"/>
</linearGradient>
<polygon fill-rule="evenodd" clip-rule="evenodd" fill="url(#SVGID_9_)" points="210.638,209.047 172.976,168.713 153.127,200.5 
	172.129,163.553 210.638,204.793 249.146,163.553 268.148,200.5 248.301,168.713 "/>
<g>
	<linearGradient id="SVGID_10_" gradientUnits="userSpaceOnUse" x1="149.6767" y1="250.5" x2="149.6767" y2="275">
		<stop  offset="0" style="stop-color:#88E100"/>
		<stop  offset="1" style="stop-color:#5A8E00"/>
	</linearGradient>
	<path fill-rule="evenodd" clip-rule="evenodd" fill="url(#SVGID_10_)" d="M228.809,244.13l-7.777,19.705l-7.784-19.705h-8.099
		l0.164,0.413l11.668,29.299l-0.775,2.007c-0.328,0.847-0.848,1.9-1.502,2.55c-0.381,0.379-0.89,0.757-1.458,0.67l-1.136-0.175
		l-3.632-0.458v7.182l1.696,0.289c0.432,0.073,0.86,0.109,1.291,0.171c0.509,0.074,1.012,0.136,1.527,0.136
		c2.203,0,4.34-0.525,6.117-1.873c1.758-1.334,3.004-3.22,3.818-5.252l13.984-34.959H228.809z M201.617,248.049
		c-2.738-3.241-6.461-4.656-10.663-4.656l-0.261,0.001c-4.266,0.057-8.043,1.508-10.814,4.839
		c-3.036,3.646-3.955,8.428-3.955,13.058c0,4.56,0.92,9.235,3.905,12.827c2.781,3.347,6.56,4.823,10.864,4.842l0.088,0
		c3.557,0,6.825-0.999,9.574-3.281c2.677-2.222,4.224-5.117,4.654-8.571l0.287-2.292h-7.48l-0.271,1.724
		c-0.245,1.562-0.9,2.854-2.136,3.853c-1.255,1.015-2.741,1.399-4.339,1.399c-0.127,0-0.252-0.003-0.377-0.008
		c-1.997-0.083-3.607-0.84-4.896-2.438c-1.279-1.587-1.873-3.56-2.091-5.565h21.77v-3.162c0-1.05-0.049-2.107-0.164-3.156
		C204.939,254.049,203.881,250.727,201.617,248.049z M183.752,256.949c0.279-1.611,0.953-3.073,2.125-4.355
		c1.307-1.428,2.907-2.059,4.816-2.089l0.146-0.001c1.909,0,3.501,0.595,4.762,2.05c1.125,1.298,1.76,2.785,2.033,4.396H183.752z
		 M123.588,243.393h-0.025c-4.844,0-8.93,1.829-11.9,5.688c-2.709,3.518-3.801,7.693-3.801,12.096c0,4.37,1.111,8.497,3.802,11.982
		c2.981,3.862,7.033,5.745,11.899,5.745h0.025c4.854-0.006,8.883-1.899,11.871-5.739c2.711-3.484,3.855-7.603,3.855-11.988
		c0-4.419-1.125-8.586-3.854-12.103C132.482,245.239,128.42,243.399,123.588,243.393z M129.496,268.594
		c-1.484,2.068-3.353,3.134-5.908,3.141h-0.025c-2.564,0-4.451-1.032-5.92-3.124c-1.564-2.227-2.162-4.795-2.162-7.492
		c0-2.699,0.566-5.313,2.154-7.537c1.475-2.068,3.385-3.078,5.928-3.078l0.025,0.001c2.537,0.006,4.43,1.021,5.906,3.081
		c1.597,2.226,2.199,4.821,2.199,7.533C131.693,263.819,131.084,266.381,129.496,268.594z M169.885,248.598
		c-1.06-1.75-2.566-3.078-4.42-3.948c-1.975-0.927-4.158-1.257-6.326-1.257c-2.351,0-4.667,0.456-6.732,1.612
		c-0.369,0.207-0.723,0.431-1.062,0.672v-1.546h-7.457v33.987h7.505v-19.646c0-2.145,0.429-4.363,1.932-5.982
		c1.367-1.474,3.169-1.985,5.144-1.985c1.354,0,3.438,0.172,4.329,1.373c0.928,1.25,1.057,4.047,1.057,5.53v20.711h7.506v-21.105
		c0-1.452,0.004-3.046-0.191-4.485C170.984,251.163,170.602,249.783,169.885,248.598z M82.408,264.046l-11.142-31.448h-8.825v45.519
		h7.793v-25.771l9.045,25.771h6.151l9.104-25.822v25.822h7.793v-45.519H93.5L82.408,264.046z"/>
</g>
<g>
	<g>
		<linearGradient id="SVGID_11_" gradientUnits="userSpaceOnUse" x1="303.0234" y1="247.5001" x2="303.0234" y2="274.5002">
			<stop  offset="0" style="stop-color:#0081D0"/>
			<stop  offset="1" style="stop-color:#003670"/>
		</linearGradient>
		<path fill-rule="evenodd" clip-rule="evenodd" fill="url(#SVGID_11_)" d="M362,249.074c-2.979-3.835-7.041-5.675-11.873-5.682
			h-0.025c-4.844,0-8.93,1.829-11.9,5.688c-2.709,3.518-3.801,7.693-3.801,12.096c0,4.37,1.111,8.497,3.801,11.982
			c2.982,3.862,7.033,5.745,11.9,5.745h0.025c4.853-0.006,8.883-1.899,11.871-5.739c2.711-3.484,3.855-7.603,3.855-11.988
			C365.853,256.758,364.728,252.591,362,249.074z M356.035,268.594c-1.484,2.068-3.354,3.134-5.908,3.141h-0.025
			c-2.565,0-4.451-1.032-5.92-3.124c-1.564-2.227-2.162-4.795-2.162-7.492c0-2.699,0.566-5.313,2.154-7.537
			c1.475-2.068,3.385-3.078,5.928-3.078l0.025,0.001c2.537,0.006,4.43,1.021,5.908,3.081c1.594,2.226,2.197,4.821,2.197,7.533
			C358.232,263.819,357.623,266.381,356.035,268.594z M301.34,243.393h-0.023c-4.846,0-8.932,1.829-11.902,5.688
			c-2.709,3.518-3.801,7.693-3.801,12.096c0,4.37,1.111,8.497,3.803,11.982c2.98,3.862,7.033,5.745,11.9,5.745h0.023
			c4.854-0.006,8.883-1.899,11.871-5.739c2.711-3.484,3.855-7.603,3.855-11.988c0-4.419-1.125-8.586-3.854-12.103
			C310.234,245.239,306.172,243.399,301.34,243.393z M307.248,268.594c-1.484,2.068-3.352,3.134-5.908,3.141h-0.023
			c-2.564,0-4.453-1.032-5.922-3.124c-1.564-2.227-2.162-4.795-2.162-7.492c0-2.699,0.566-5.313,2.154-7.537
			c1.475-2.068,3.385-3.078,5.93-3.078l0.023,0.001c2.537,0.006,4.43,1.021,5.908,3.081c1.596,2.226,2.197,4.821,2.197,7.533
			C309.445,263.819,308.836,266.381,307.248,268.594z M321.928,277.315c0,0.316-0.041,1.288-0.248,1.553
			c-0.182,0.216-0.514,0.228-0.771,0.194l-3.643-0.468v7.198l2.836,0.296l1.125,0.115c2.383,0.245,4.697-0.489,6.299-2.313
			c1.484-1.689,1.908-3.997,1.908-6.182V244.13h-7.506V277.315z M321.928,241.906h7.506v-9.308h-7.506V241.906z M260.162,264.046
			l-11.143-31.448h-8.826v45.519h7.793v-25.771l9.045,25.771h6.152l9.104-25.822v25.822h7.793v-45.519h-8.826L260.162,264.046z"/>
	</g>
</g>
<g>
	<linearGradient id="SVGID_12_" gradientUnits="userSpaceOnUse" x1="240.2031" y1="292.1143" x2="317.418" y2="292.1143">
		<stop  offset="0" style="stop-color:#88E100"/>
		<stop  offset="1" style="stop-color:#5A8E00"/>
	</linearGradient>
	<path fill="url(#SVGID_12_)" d="M273.156,285.472c-1.07-0.39-2.233-0.582-3.486-0.577c-0.553,0.002-1.125,0.043-1.717,0.122
		c-1.918,0.257-3.488,1.091-4.705,2.493c-0.75,0.846-1.301,1.895-1.648,3.16c-0.355,1.265-0.529,2.529-0.529,3.794
		c0,1.547,0.211,3.034,0.631,4.46c0.426,1.433,1.127,2.565,2.109,3.412c0.936,0.838,2.19,1.439,3.76,1.793
		c0.703,0.155,1.402,0.234,2.1,0.236c0.861,0.002,1.717-0.112,2.57-0.344c1.732-0.377,3.164-1.337,4.287-2.878
		c0.514-0.75,0.934-1.667,1.264-2.745c0.33-1.073,0.492-2.362,0.492-3.861c0-2.062-0.397-3.866-1.193-5.407
		C276.244,287.396,274.932,286.173,273.156,285.472z M272.594,298.679c-0.563,0.845-1.211,1.373-1.938,1.582
		c-0.33,0.096-0.66,0.144-0.986,0.142c-0.387-0.001-0.771-0.072-1.152-0.212c-0.701-0.259-1.193-0.57-1.475-0.948
		c-0.701-0.845-1.104-2.332-1.193-4.46c-0.096-2.129,0.348-3.735,1.33-4.814c0.33-0.325,0.846-0.594,1.547-0.81
		c0.314-0.094,0.629-0.144,0.943-0.148c0.391-0.006,0.779,0.055,1.168,0.184c0.701,0.233,1.318,0.774,1.857,1.619
		c0.541,0.839,0.811,2.104,0.811,3.794C273.457,296.479,273.15,297.84,272.594,298.679z M310.674,292.498l6.672-7.164h-5.9
		l-5.971,6.882v-10.041c0-0.611-0.232-1.15-0.701-1.618c-0.467-0.468-1.031-0.702-1.684-0.702h-2.529v24.165h4.914v-7.099
		c0-0.371,0.258-0.652,0.773-0.838c0.516-0.186,1.121,0.347,1.828,1.613l3.441,6.324h5.9L310.674,292.498z M295.178,286.034
		c-0.445,0.468-0.666,1.033-0.666,1.686v9.556c0,1.121-0.342,1.942-1.02,2.458c-0.678,0.516-1.439,0.773-2.283,0.773
		c-0.848,0-1.596-0.257-2.25-0.773c-0.652-0.516-0.982-1.337-0.982-2.458v-11.942h-4.916v10.959c0,3.23,0.834,5.365,2.494,6.396
		c1.66,1.031,3.502,1.589,5.516,1.685c2.063,0,3.957-0.516,5.69-1.547c1.732-1.031,2.602-3.207,2.602-6.534v-10.959h-2.457
		C296.195,285.334,295.627,285.568,295.178,286.034z M279.057,301.628v2.392h3.867v-3.867h-2.392
		C279.549,300.153,279.057,300.645,279.057,301.628z M255.941,298.613c-0.283,0.233-0.469,0.419-0.564,0.557
		c-0.139,0.144-0.27,0.27-0.383,0.39c-0.121,0.113-0.246,0.198-0.391,0.246c-0.559,0.33-1.24,0.492-2.033,0.492
		c-1.223,0-2.133-0.378-2.74-1.128c-0.844-0.887-1.264-2.41-1.264-4.562c0-2.159,0.42-3.705,1.264-4.639
		c0.654-0.654,1.5-0.984,2.525-0.984c1.127,0,1.99,0.33,2.602,0.984c0.234,0.233,0.467,0.587,0.701,1.054h4.916
		c-0.371-1.361-0.982-2.553-1.822-3.584c-1.547-1.686-3.723-2.53-6.533-2.53c-2.67,0-4.756,0.869-6.254,2.601
		c-1.082,1.255-1.76,2.879-2.035,4.865c-0.094,0.679-0.143,1.399-0.143,2.162c0,0.787,0.049,1.528,0.143,2.223
		c0.281,2.08,0.982,3.75,2.107,5.012c1.498,1.733,3.578,2.602,6.252,2.602c2.201,0,4.029-0.539,5.48-1.619
		c1.449-1.031,2.434-2.53,2.949-4.496h-3.514C256.641,298.259,256.223,298.378,255.941,298.613z M240.203,301.628v2.392h3.867
		v-3.867h-2.393C240.695,300.153,240.203,300.645,240.203,301.628z"/>
</g>
<path d="M201.617,528.543c-2.738-3.241-6.461-4.657-10.664-4.657l-0.26,0.002c-4.268,0.057-8.043,1.508-10.816,4.84
	c-3.035,3.647-3.955,8.429-3.955,13.059c0,4.56,0.922,9.235,3.906,12.827c2.781,3.347,6.559,4.822,10.865,4.842l0.088,0.001
	c3.557,0,6.824-1,9.573-3.281c2.678-2.223,4.225-5.117,4.655-8.571l0.286-2.292h-7.48l-0.27,1.724
	c-0.245,1.563-0.9,2.854-2.137,3.854c-1.254,1.015-2.74,1.398-4.34,1.398c-0.126,0-0.252-0.003-0.375-0.008
	c-1.998-0.083-3.607-0.839-4.898-2.438c-1.279-1.586-1.872-3.56-2.091-5.565h21.771v-3.162c0-1.051-0.049-2.108-0.164-3.157
	C204.939,534.543,203.881,531.221,201.617,528.543z M183.752,537.443c0.278-1.611,0.952-3.073,2.125-4.354
	c1.307-1.428,2.906-2.06,4.816-2.09l0.145-0.001c1.909,0,3.501,0.595,4.763,2.05c1.124,1.298,1.76,2.785,2.033,4.396H183.752z
	 M123.584,523.887l-0.023-0.001c-4.846,0-8.932,1.83-11.902,5.689c-2.709,3.519-3.801,7.694-3.801,12.097
	c0,4.37,1.113,8.497,3.803,11.983c2.98,3.862,7.033,5.744,11.9,5.744h0.023c4.856-0.007,8.885-1.899,11.873-5.738
	c2.711-3.484,3.854-7.603,3.854-11.989c0-4.419-1.124-8.586-3.854-12.102C132.48,525.733,128.418,523.893,123.584,523.887z
	 M129.493,549.089c-1.484,2.067-3.353,3.133-5.909,3.14l-0.023,0.001c-2.564,0-4.451-1.032-5.92-3.124
	c-1.564-2.228-2.162-4.796-2.162-7.492c0-2.699,0.566-5.313,2.152-7.537c1.477-2.068,3.386-3.078,5.93-3.078h0.023
	c2.537,0.007,4.432,1.022,5.908,3.082c1.596,2.226,2.199,4.82,2.199,7.533C131.691,544.314,131.081,546.875,129.493,549.089z
	 M82.404,544.541l-11.142-31.449h-8.825v45.521h7.792v-25.771l9.046,25.771h6.151l9.104-25.823v25.823h7.793v-45.521h-8.827
	L82.404,544.541z M169.883,529.092c-1.059-1.75-2.566-3.078-4.42-3.948c-1.975-0.927-4.158-1.258-6.325-1.258
	c-2.351,0-4.668,0.456-6.733,1.612c-0.369,0.207-0.723,0.432-1.061,0.672v-1.545h-7.457v33.987h7.505v-19.648
	c0-2.143,0.429-4.362,1.932-5.981c1.367-1.475,3.17-1.985,5.145-1.985c1.354,0,3.439,0.172,4.329,1.372
	c0.927,1.25,1.057,4.048,1.057,5.529v20.713h7.505v-21.105c0-1.451,0.004-3.047-0.19-4.485
	C170.982,531.657,170.6,530.276,169.883,529.092z M221.031,544.33l-7.784-19.705h-8.099l0.164,0.412l11.668,29.301l-0.775,2.007
	c-0.328,0.848-0.848,1.9-1.502,2.55c-0.381,0.379-0.89,0.758-1.458,0.67l-1.136-0.175l-3.633-0.458v7.182l1.697,0.289
	c0.432,0.073,0.86,0.109,1.291,0.171c0.509,0.074,1.012,0.137,1.527,0.137c2.203,0,4.34-0.525,6.117-1.873
	c1.758-1.333,3.004-3.22,3.818-5.253l13.984-34.959h-8.104L221.031,544.33z M280.082,558.612v-45.521h-8.828l-11.092,31.449
	l-11.143-31.449h-8.824v45.521h7.793v-25.771l9.045,25.771h6.15l9.105-25.823v25.823H280.082z M362.004,529.568
	c-2.979-3.835-7.041-5.676-11.873-5.682l-0.025-0.001c-4.844,0-8.93,1.83-11.9,5.689c-2.709,3.519-3.801,7.694-3.801,12.097
	c0,4.37,1.111,8.497,3.801,11.983c2.982,3.862,7.035,5.744,11.9,5.744h0.025c4.854-0.007,8.883-1.899,11.871-5.738
	c2.711-3.484,3.855-7.603,3.855-11.989C365.857,537.252,364.732,533.085,362.004,529.568z M356.039,549.089
	c-1.484,2.067-3.354,3.133-5.908,3.14l-0.025,0.001c-2.565,0-4.451-1.032-5.92-3.124c-1.564-2.228-2.162-4.796-2.162-7.492
	c0-2.699,0.566-5.313,2.154-7.537c1.475-2.068,3.385-3.078,5.928-3.078h0.025c2.537,0.007,4.43,1.022,5.906,3.082
	c1.598,2.226,2.199,4.82,2.199,7.533C358.236,544.314,357.627,546.875,356.039,549.089z M301.342,523.887l-0.023-0.001
	c-4.846,0-8.932,1.83-11.902,5.689c-2.709,3.519-3.801,7.694-3.801,12.097c0,4.37,1.113,8.497,3.803,11.983
	c2.98,3.862,7.033,5.744,11.9,5.744h0.023c4.855-0.007,8.885-1.899,11.873-5.738c2.711-3.484,3.855-7.603,3.855-11.989
	c0-4.419-1.125-8.586-3.855-12.102C310.238,525.732,306.176,523.893,301.342,523.887z M307.25,549.089
	c-1.484,2.067-3.352,3.134-5.908,3.14l-0.023,0.001c-2.564,0-4.451-1.032-5.92-3.124c-1.564-2.228-2.162-4.796-2.162-7.492
	c0-2.699,0.566-5.313,2.152-7.537c1.477-2.068,3.387-3.078,5.93-3.078h0.023c2.537,0.006,4.432,1.022,5.908,3.082
	c1.596,2.226,2.199,4.82,2.199,7.533C309.449,544.314,308.838,546.875,307.25,549.089z M321.932,557.81
	c0,0.315-0.041,1.287-0.248,1.553c-0.184,0.217-0.516,0.229-0.771,0.194l-3.645-0.468v7.198l2.838,0.297l1.125,0.114
	c2.383,0.244,4.695-0.489,6.299-2.313c1.484-1.69,1.906-3.998,1.906-6.183v-33.578h-7.504V557.81z M321.932,522.4h7.504v-9.309
	h-7.504V522.4z M255.971,431.167l26.5-30.058c2.293,4.541,4.262,9.504,5.914,14.906l40.434-96.94l-82.709,49.392
	c4.555,1.705,8.762,3.758,12.639,6.17l-47.674,54.074C211.074,428.711,234.295,455.753,255.971,431.167z M210.355,495.122
	c43.727,0,83.138,4.112,110.88,10.693c-8.467-3.568-18.834-6.709-30.664-9.294c1.859-0.395,3.691-1.145,5.406-2.32
	c7.799-5.348,10.389-17.089,5.756-26.092l-26.912-52.304l-24.226,27.479l22.781,44.27c1.5,2.916,3.586,5.19,5.98,6.766
	c-19.262-3.392-41.586-5.407-65.453-5.59l34.113-36.533l19.85,31.786l-19.002-36.947l-38.509,41.24l-38.509-41.24l-19.002,36.947
	l19.848-31.786l34.115,36.533c-23.24,0.178-45.023,2.092-63.936,5.324c1.25-1.272,2.353-2.779,3.246-4.516l24.734-48.069
	c0,0-21.264-29.905-37.068-2.521l-16.025,31.145c-4.633,9.003-2.042,20.744,5.758,26.092c0.764,0.524,1.555,0.945,2.357,1.311
	c-10.064,2.387-18.967,5.188-26.398,8.319C127.217,499.234,166.627,495.122,210.355,495.122z M171.701,439.486l26.389,30.425
	c0.205,0.265,0.416,0.524,0.635,0.777c2.217,2.56,4.914,4.229,7.762,5.014c5.425,1.526,11.4-0.146,15.613-5.014
	c0.189-0.22,0.375-0.443,0.553-0.671l32.752-37.15c-21.676,24.587-44.896-2.455-44.896-2.455l-29.193-33.659
	c-1.209-1.766-2.71-3.309-4.48-4.523c-7.799-5.348-17.969-2.357-22.602,6.646l-19.598,38.088
	C150.438,409.582,171.701,439.486,171.701,439.486z M272.406,566.722c-1.072-0.391-2.233-0.583-3.486-0.577
	c-0.555,0.002-1.125,0.043-1.717,0.122c-1.918,0.258-3.488,1.091-4.705,2.493c-0.75,0.846-1.301,1.894-1.648,3.16
	c-0.355,1.265-0.529,2.529-0.529,3.794c0,1.547,0.211,3.033,0.631,4.46c0.426,1.434,1.127,2.565,2.109,3.412
	c0.936,0.838,2.19,1.439,3.76,1.792c0.703,0.155,1.402,0.234,2.1,0.236c0.861,0.002,1.717-0.112,2.57-0.345
	c1.732-0.377,3.164-1.337,4.287-2.877c0.514-0.75,0.934-1.667,1.264-2.745c0.33-1.073,0.492-2.363,0.492-3.861
	c0-2.063-0.397-3.866-1.193-5.407C275.494,568.646,274.182,567.423,272.406,566.722z M271.844,579.929
	c-0.565,0.845-1.211,1.373-1.938,1.582c-0.33,0.096-0.66,0.144-0.986,0.142c-0.387-0.002-0.771-0.072-1.152-0.213
	c-0.701-0.259-1.193-0.569-1.475-0.947c-0.703-0.845-1.104-2.332-1.193-4.46c-0.098-2.129,0.348-3.735,1.33-4.814
	c0.33-0.325,0.846-0.595,1.547-0.81c0.314-0.094,0.629-0.144,0.943-0.148c0.391-0.006,0.779,0.056,1.168,0.185
	c0.701,0.233,1.318,0.774,1.857,1.619c0.541,0.839,0.811,2.105,0.811,3.794C272.707,577.729,272.4,579.09,271.844,579.929z
	 M239.453,582.879v2.391h3.867v-3.866h-2.393C239.945,581.403,239.453,581.895,239.453,582.879z M255.191,579.863
	c-0.283,0.233-0.469,0.42-0.564,0.557c-0.139,0.145-0.27,0.271-0.383,0.39c-0.121,0.113-0.246,0.198-0.391,0.246
	c-0.559,0.33-1.24,0.491-2.033,0.491c-1.223,0-2.133-0.378-2.74-1.127c-0.844-0.887-1.264-2.41-1.264-4.563
	c0-2.158,0.42-3.704,1.264-4.639c0.654-0.654,1.5-0.984,2.525-0.984c1.127,0,1.99,0.33,2.602,0.984
	c0.234,0.233,0.467,0.587,0.701,1.054h4.916c-0.371-1.36-0.982-2.553-1.822-3.584c-1.547-1.686-3.725-2.53-6.533-2.53
	c-2.67,0-4.756,0.869-6.254,2.602c-1.082,1.255-1.76,2.879-2.035,4.865c-0.094,0.678-0.143,1.398-0.143,2.161
	c0,0.787,0.049,1.527,0.143,2.223c0.281,2.08,0.982,3.75,2.107,5.013c1.498,1.732,3.578,2.603,6.252,2.603
	c2.201,0,4.029-0.54,5.48-1.619c1.449-1.031,2.434-2.53,2.947-4.496h-3.512C255.891,579.509,255.473,579.628,255.191,579.863z
	 M294.428,567.284c-0.445,0.468-0.666,1.032-0.666,1.686v9.557c0,1.121-0.342,1.941-1.02,2.457
	c-0.678,0.516-1.439,0.773-2.285,0.773s-1.594-0.258-2.248-0.773c-0.652-0.516-0.982-1.336-0.982-2.457v-11.943h-4.916v10.96
	c0,3.23,0.834,5.365,2.494,6.395c1.66,1.031,3.502,1.589,5.516,1.686c2.063,0,3.957-0.517,5.69-1.548
	c1.732-1.03,2.602-3.206,2.602-6.533v-10.96h-2.457C295.445,566.583,294.877,566.817,294.428,567.284z M278.307,582.879v2.391h3.867
	v-3.866h-2.392C278.799,581.403,278.307,581.895,278.307,582.879z M316.596,566.583h-5.9l-5.971,6.882v-10.041
	c0-0.61-0.232-1.15-0.701-1.618c-0.467-0.468-1.031-0.701-1.684-0.701h-2.531v24.165h4.916v-7.099c0-0.371,0.258-0.652,0.773-0.838
	c0.516-0.187,1.121,0.347,1.828,1.612l3.441,6.324h5.9l-6.744-11.522L316.596,566.583z"/>
<g>
	<g>
		<g>
			<linearGradient id="SVGID_13_" gradientUnits="userSpaceOnUse" x1="569.6285" y1="638.3648" x2="571.6285" y2="736.3643">
				<stop  offset="0" style="stop-color:#0081D0"/>
				<stop  offset="1" style="stop-color:#003670"/>
			</linearGradient>
			<path fill-rule="evenodd" clip-rule="evenodd" fill="url(#SVGID_13_)" d="M641.725,694.383c-1.49-4.868-3.264-9.342-5.33-13.435
				l-23.883,27.091c-19.537,22.159-40.467-2.213-40.467-2.213l42.967-48.737c-3.492-2.175-7.285-4.025-11.391-5.562l43.197-25.796
				c-2.844-1.376-6.029-2.148-9.387-2.148H504.828c-11.934,0-21.699,9.765-21.699,21.698V771.11
				c3.777-1.172,7.816-2.27,12.088-3.283c-0.711-0.327-1.41-0.722-2.089-1.186c-7.029-4.82-9.364-15.402-5.188-23.517l14.443-28.071
				c14.244-24.68,33.409,2.274,33.409,2.274l-22.293,43.324c-0.804,1.562-1.792,2.922-2.915,4.066
				c14.129-2.414,30.033-4.013,46.99-4.58c3.498-0.117,7.041-0.19,10.621-0.218l-10.621-11.374l-20.123-21.551l-17.89,28.65
				l17.127-33.301l20.886,22.368l13.822,14.802l34.707-37.17l17.127,33.301l-17.891-28.65l-30.742,32.925
				c21.494,0.165,41.605,1.979,58.957,5.032c-2.146-1.419-4.012-3.472-5.359-6.089l-20.531-39.901l21.836-24.767l24.256,47.141
				c4.174,8.114,1.84,18.697-5.189,23.517c-1.531,1.051-3.164,1.744-4.826,2.102c5.5,1.202,10.646,2.538,15.389,3.992V652.655
				L641.725,694.383z M582.48,743.056c-0.162,0.205-0.326,0.406-0.498,0.604c-3.797,4.388-9.184,5.894-14.072,4.518
				c-2.567-0.707-4.998-2.211-6.996-4.518c-0.197-0.229-0.388-0.462-0.572-0.701l-2.768-3.19l-21.016-24.231
				c0,0-19.166-26.954-33.409-2.273l17.664-34.329c4.175-8.114,13.343-10.81,20.372-5.989c1.595,1.094,2.947,2.484,4.037,4.076
				l12.352,14.241l13.961,16.095c0,0,20.928,24.373,40.465,2.214L582.48,743.056z"/>
		</g>
	</g>
	<linearGradient id="SVGID_14_" gradientUnits="userSpaceOnUse" x1="478.877" y1="711.5831" x2="663.3809" y2="711.5831">
		<stop  offset="0" style="stop-color:#0081D0"/>
		<stop  offset="1" style="stop-color:#003670"/>
	</linearGradient>
	<path fill-rule="evenodd" clip-rule="evenodd" fill="url(#SVGID_14_)" d="M571.129,619.331h66.303
		c14.281,0,25.949,11.67,25.949,25.95v132.604c0,14.28-11.668,25.95-25.949,25.95h-66.303v-4.252h66.303
		c11.934,0,21.697-9.765,21.697-21.698V645.281c0-11.933-9.764-21.698-21.697-21.698h-66.303V619.331z M504.828,619.331h66.301
		v4.252h-66.301c-11.934,0-21.699,9.765-21.699,21.698v132.604c0,11.934,9.766,21.698,21.699,21.698h66.301v4.252h-66.301
		c-14.281,0-25.951-11.67-25.951-25.95V645.281C478.877,631.001,490.547,619.331,504.828,619.331z"/>
	<linearGradient id="SVGID_15_" gradientUnits="userSpaceOnUse" x1="483.1289" y1="782.6323" x2="659.1289" y2="782.6323">
		<stop  offset="0" style="stop-color:#88E100"/>
		<stop  offset="1" style="stop-color:#5A8E00"/>
	</linearGradient>
	<path fill-rule="evenodd" clip-rule="evenodd" fill="url(#SVGID_15_)" d="M659.129,772.758v5.127
		c0,11.934-9.764,21.698-21.697,21.698H504.828c-11.934,0-21.699-9.765-21.699-21.698v-5.027
		c23.846-4.477,54.639-7.176,88.268-7.176C604.773,765.682,635.359,768.341,659.129,772.758z"/>
</g>
<linearGradient id="SVGID_16_" gradientUnits="userSpaceOnUse" x1="456.7412" y1="214.0152" x2="678.5" y2="214.0152">
	<stop  offset="0" style="stop-color:#0081D0"/>
	<stop  offset="1" style="stop-color:#003670"/>
</linearGradient>
<path fill-rule="evenodd" clip-rule="evenodd" fill="url(#SVGID_16_)" d="M567.62,205.464c45.829,0,86.341,6.758,110.88,17.102
	c-27.742-6.581-67.152-10.693-110.88-10.693c-43.728,0-83.138,4.112-110.879,10.693C481.279,212.222,521.791,205.464,567.62,205.464
	z"/>
<linearGradient id="SVGID_17_" gradientUnits="userSpaceOnUse" x1="645.4606" y1="198.5949" x2="621.7946" y2="150.595">
	<stop  offset="0" style="stop-color:#88E100"/>
	<stop  offset="1" style="stop-color:#5A8E00"/>
</linearGradient>
<path fill-rule="evenodd" clip-rule="evenodd" fill="url(#SVGID_17_)" d="M607.861,161.785l22.779,44.271
	c4.631,9.003,14.803,11.994,22.602,6.646l0,0c7.799-5.348,10.389-17.089,5.756-26.092l-26.912-52.303L607.861,161.785z"/>
<linearGradient id="SVGID_18_" gradientUnits="userSpaceOnUse" x1="540.0005" y1="143.8455" x2="669.0018" y2="244.3466">
	<stop  offset="0" style="stop-color:#0081D0"/>
	<stop  offset="1" style="stop-color:#003670"/>
</linearGradient>
<path fill-rule="evenodd" clip-rule="evenodd" fill="url(#SVGID_18_)" d="M567.773,148.912l-29.193-33.658
	c-1.209-1.766-2.709-3.309-4.479-4.523l0,0c-7.799-5.348-17.97-2.358-22.603,6.645L491.9,155.464l0,0
	c15.803-27.383,37.066,2.522,37.066,2.522l26.389,30.425c0.205,0.264,0.416,0.524,0.635,0.777l0,0
	c2.217,2.561,4.914,4.229,7.763,5.014c5.425,1.526,11.399-0.145,15.612-5.014l0,0c0.191-0.22,0.375-0.443,0.553-0.671l32.752-37.15
	C590.994,175.954,567.773,148.912,567.773,148.912z"/>
<linearGradient id="SVGID_19_" gradientUnits="userSpaceOnUse" x1="631.1839" y1="104.4338" x2="584.1839" y2="156.4339">
	<stop  offset="0" style="stop-color:#0081D0"/>
	<stop  offset="1" style="stop-color:#003670"/>
</linearGradient>
<path fill-rule="evenodd" clip-rule="evenodd" fill="url(#SVGID_19_)" d="M615.447,94.837l-47.674,54.074
	c0,0,23.221,27.042,44.896,2.456l26.5-30.058c2.293,4.541,4.262,9.504,5.914,14.906l40.434-96.94l-82.709,49.392
	C607.361,90.372,611.57,92.425,615.447,94.837z"/>
<linearGradient id="SVGID_20_" gradientUnits="userSpaceOnUse" x1="494.0346" y1="188.5224" x2="514.0345" y2="150.0225">
	<stop  offset="0" style="stop-color:#0081D0"/>
	<stop  offset="1" style="stop-color:#003670"/>
</linearGradient>
<path fill-rule="evenodd" clip-rule="evenodd" fill="url(#SVGID_20_)" d="M491.9,155.464l-16.025,31.145
	c-4.633,9.003-2.043,20.745,5.756,26.092l0,0c7.799,5.348,17.97,2.357,22.603-6.646l24.733-48.069
	C528.967,157.986,507.703,128.082,491.9,155.464L491.9,155.464z"/>
<linearGradient id="SVGID_21_" gradientUnits="userSpaceOnUse" x1="510.1094" y1="186.2998" x2="625.1309" y2="186.2998">
	<stop  offset="0" style="stop-color:#0081D0"/>
	<stop  offset="1" style="stop-color:#003670"/>
</linearGradient>
<polygon fill-rule="evenodd" clip-rule="evenodd" fill="url(#SVGID_21_)" points="567.62,209.047 529.958,168.713 510.109,200.5 
	529.111,163.553 567.62,204.793 606.129,163.553 625.131,200.5 605.283,168.713 "/>
<g>
	<linearGradient id="SVGID_22_" gradientUnits="userSpaceOnUse" x1="506.6591" y1="250.5" x2="506.6591" y2="275">
		<stop  offset="0" style="stop-color:#88E100"/>
		<stop  offset="1" style="stop-color:#5A8E00"/>
	</linearGradient>
	<path fill-rule="evenodd" clip-rule="evenodd" fill="url(#SVGID_22_)" d="M585.791,244.13l-7.777,19.705l-7.784-19.705h-8.099
		l0.164,0.413l11.668,29.299l-0.775,2.007c-0.328,0.847-0.848,1.9-1.502,2.55c-0.381,0.379-0.89,0.757-1.458,0.67l-1.136-0.175
		l-3.632-0.458v7.182l1.696,0.289c0.432,0.073,0.86,0.109,1.291,0.171c0.509,0.074,1.012,0.136,1.527,0.136
		c2.203,0,4.34-0.525,6.117-1.873c1.758-1.334,3.004-3.22,3.818-5.252l13.984-34.959H585.791z M558.6,248.049
		c-2.738-3.241-6.461-4.656-10.663-4.656l-0.261,0.001c-4.266,0.057-8.043,1.508-10.815,4.839
		c-3.036,3.646-3.955,8.428-3.955,13.058c0,4.56,0.92,9.235,3.905,12.827c2.781,3.347,6.56,4.823,10.864,4.842l0.088,0
		c3.557,0,6.825-0.999,9.574-3.281c2.677-2.222,4.224-5.117,4.654-8.571l0.287-2.292h-7.481l-0.271,1.724
		c-0.245,1.562-0.9,2.854-2.136,3.853c-1.255,1.015-2.741,1.399-4.339,1.399c-0.127,0-0.252-0.003-0.377-0.008
		c-1.997-0.083-3.607-0.84-4.896-2.438c-1.279-1.587-1.873-3.56-2.091-5.565h21.771v-3.162c0-1.05-0.049-2.107-0.164-3.156
		C561.922,254.049,560.863,250.727,558.6,248.049z M540.734,256.949c0.279-1.611,0.953-3.073,2.125-4.355
		c1.307-1.428,2.907-2.059,4.816-2.089l0.146-0.001c1.909,0,3.501,0.595,4.762,2.05c1.125,1.298,1.76,2.785,2.033,4.396H540.734z
		 M480.57,243.393h-0.025c-4.844,0-8.93,1.829-11.9,5.688c-2.709,3.518-3.801,7.693-3.801,12.096c0,4.37,1.111,8.497,3.802,11.982
		c2.982,3.862,7.033,5.745,11.899,5.745h0.025c4.854-0.006,8.883-1.899,11.871-5.739c2.711-3.484,3.856-7.603,3.856-11.988
		c0-4.419-1.125-8.586-3.855-12.103C489.465,245.239,485.402,243.399,480.57,243.393z M486.478,268.594
		c-1.484,2.068-3.353,3.134-5.908,3.141h-0.025c-2.564,0-4.451-1.032-5.92-3.124c-1.565-2.227-2.162-4.795-2.162-7.492
		c0-2.699,0.566-5.313,2.154-7.537c1.475-2.068,3.385-3.078,5.928-3.078l0.025,0.001c2.537,0.006,4.43,1.021,5.906,3.081
		c1.597,2.226,2.199,4.821,2.199,7.533C488.676,263.819,488.066,266.381,486.478,268.594z M526.867,248.598
		c-1.06-1.75-2.566-3.078-4.42-3.948c-1.975-0.927-4.158-1.257-6.326-1.257c-2.351,0-4.667,0.456-6.732,1.612
		c-0.369,0.207-0.723,0.431-1.062,0.672v-1.546h-7.457v33.987h7.505v-19.646c0-2.145,0.429-4.363,1.932-5.982
		c1.367-1.474,3.169-1.985,5.144-1.985c1.354,0,3.438,0.172,4.329,1.373c0.928,1.25,1.057,4.047,1.057,5.53v20.711h7.506v-21.105
		c0-1.452,0.004-3.046-0.191-4.485C527.967,251.163,527.584,249.783,526.867,248.598z M439.391,264.046l-11.142-31.448h-8.825
		v45.519h7.793v-25.771l9.045,25.771h6.151l9.104-25.822v25.822h7.793v-45.519h-8.828L439.391,264.046z"/>
</g>
<g>
	<g>
		<linearGradient id="SVGID_23_" gradientUnits="userSpaceOnUse" x1="660.0059" y1="247.5001" x2="660.0059" y2="274.5002">
			<stop  offset="0" style="stop-color:#0081D0"/>
			<stop  offset="1" style="stop-color:#003670"/>
		</linearGradient>
		<path fill-rule="evenodd" clip-rule="evenodd" fill="url(#SVGID_23_)" d="M718.982,249.074c-2.978-3.835-7.041-5.675-11.873-5.682
			h-0.025c-4.844,0-8.93,1.829-11.9,5.688c-2.709,3.518-3.801,7.693-3.801,12.096c0,4.37,1.111,8.497,3.801,11.982
			c2.982,3.862,7.033,5.745,11.9,5.745h0.025c4.854-0.006,8.883-1.899,11.871-5.739c2.711-3.484,3.855-7.603,3.855-11.988
			C722.836,256.758,721.711,252.591,718.982,249.074z M713.018,268.594c-1.484,2.068-3.354,3.134-5.908,3.141h-0.025
			c-2.565,0-4.451-1.032-5.92-3.124c-1.564-2.227-2.162-4.795-2.162-7.492c0-2.699,0.566-5.313,2.154-7.537
			c1.475-2.068,3.385-3.078,5.928-3.078l0.025,0.001c2.537,0.006,4.43,1.021,5.908,3.081c1.594,2.226,2.197,4.821,2.197,7.533
			C715.215,263.819,714.605,266.381,713.018,268.594z M658.322,243.393h-0.023c-4.846,0-8.932,1.829-11.902,5.688
			c-2.709,3.518-3.801,7.693-3.801,12.096c0,4.37,1.111,8.497,3.803,11.982c2.981,3.862,7.033,5.745,11.9,5.745h0.023
			c4.854-0.006,8.883-1.899,11.871-5.739c2.711-3.484,3.855-7.603,3.855-11.988c0-4.419-1.125-8.586-3.853-12.103
			C667.217,245.239,663.154,243.399,658.322,243.393z M664.23,268.594c-1.484,2.068-3.352,3.134-5.908,3.141h-0.023
			c-2.564,0-4.453-1.032-5.922-3.124c-1.565-2.227-2.162-4.795-2.162-7.492c0-2.699,0.567-5.313,2.154-7.537
			c1.475-2.068,3.385-3.078,5.93-3.078l0.023,0.001c2.537,0.006,4.43,1.021,5.908,3.081c1.596,2.226,2.197,4.821,2.197,7.533
			C666.428,263.819,665.818,266.381,664.23,268.594z M678.91,277.315c0,0.316-0.041,1.288-0.248,1.553
			c-0.182,0.216-0.514,0.228-0.772,0.194l-3.643-0.468v7.198l2.836,0.296l1.125,0.115c2.383,0.245,4.697-0.489,6.299-2.313
			c1.484-1.689,1.908-3.997,1.908-6.182V244.13h-7.506V277.315z M678.91,241.906h7.506v-9.308h-7.506V241.906z M617.144,264.046
			l-11.142-31.448h-8.826v45.519h7.793v-25.771l9.045,25.771h6.152l9.103-25.822v25.822h7.793v-45.519h-8.826L617.144,264.046z"/>
	</g>
</g>
<g>
	
		<linearGradient id="SVGID_24_" gradientUnits="userSpaceOnUse" x1="743.312" y1="214.0513" x2="794.1528" y2="214.0513" gradientTransform="matrix(0 -1 1 0 517.6791 1025.9082)">
		<stop  offset="0" style="stop-color:#88E100"/>
		<stop  offset="1" style="stop-color:#5A8E00"/>
	</linearGradient>
	<path fill="url(#SVGID_24_)" d="M727.356,260.899c-0.257,0.705-0.383,1.47-0.38,2.295c0.002,0.364,0.028,0.741,0.081,1.13
		c0.169,1.263,0.718,2.297,1.642,3.098c0.557,0.494,1.247,0.856,2.08,1.085c0.833,0.234,1.666,0.348,2.498,0.348
		c1.019,0,1.997-0.139,2.938-0.415c0.943-0.28,1.688-0.742,2.246-1.389c0.553-0.616,0.947-1.441,1.18-2.475
		c0.104-0.463,0.154-0.924,0.156-1.383c0.001-0.567-0.074-1.13-0.227-1.692c-0.248-1.141-0.881-2.083-1.896-2.823
		c-0.493-0.338-1.098-0.615-1.808-0.832c-0.706-0.217-1.556-0.324-2.542-0.324c-1.358,0-2.546,0.261-3.56,0.786
		C728.623,258.866,727.818,259.73,727.356,260.899z M736.053,261.27c0.557,0.37,0.904,0.797,1.042,1.275
		c0.063,0.217,0.095,0.435,0.093,0.649c0,0.255-0.047,0.508-0.14,0.759c-0.171,0.462-0.375,0.786-0.624,0.971
		c-0.557,0.462-1.536,0.727-2.936,0.786c-1.401,0.063-2.46-0.229-3.169-0.876c-0.215-0.217-0.393-0.557-0.533-1.019
		c-0.063-0.207-0.096-0.414-0.098-0.621c-0.005-0.257,0.035-0.513,0.12-0.769c0.154-0.461,0.511-0.868,1.066-1.223
		c0.553-0.356,1.386-0.533,2.499-0.533C734.604,260.701,735.5,260.903,736.053,261.27z M731.982,236.196l-4.717-4.393v3.885
		l4.532,3.931h-6.612c-0.402,0-0.757,0.153-1.065,0.462c-0.308,0.307-0.462,0.679-0.462,1.108v1.665h15.912v-3.236h-4.675
		c-0.244,0-0.43-0.169-0.552-0.509c-0.123-0.34,0.228-0.738,1.063-1.204l4.164-2.266v-3.885L731.982,236.196z M727.727,246.399
		c0.309,0.293,0.68,0.439,1.109,0.439h6.293c0.737,0,1.278,0.225,1.617,0.671c0.34,0.446,0.51,0.948,0.51,1.503
		c0,0.558-0.17,1.051-0.51,1.481c-0.339,0.43-0.88,0.647-1.617,0.647h-7.864v3.237h7.217c2.127,0,3.531-0.549,4.211-1.642
		c0.679-1.093,1.047-2.306,1.109-3.632c0-1.358-0.34-2.606-1.018-3.746c-0.679-1.141-2.111-1.713-4.302-1.713h-7.217v1.618
		C727.266,245.729,727.42,246.104,727.727,246.399z M737.995,257.014h1.575v-2.546h-2.547v1.575
		C737.023,256.69,737.348,257.014,737.995,257.014z M736.01,272.234c0.153,0.186,0.275,0.309,0.366,0.372
		c0.095,0.091,0.179,0.177,0.257,0.252c0.074,0.08,0.131,0.162,0.162,0.257c0.217,0.368,0.324,0.816,0.324,1.339
		c0,0.805-0.25,1.404-0.743,1.804c-0.584,0.556-1.587,0.832-3.003,0.832c-1.422,0-2.439-0.276-3.055-0.832
		c-0.432-0.431-0.648-0.988-0.648-1.663c0-0.742,0.217-1.311,0.648-1.713c0.153-0.154,0.386-0.307,0.693-0.461v-3.237
		c-0.895,0.244-1.681,0.646-2.359,1.2c-1.11,1.019-1.666,2.451-1.666,4.302c0,1.758,0.572,3.131,1.713,4.118
		c0.826,0.712,1.896,1.159,3.202,1.34c0.448,0.062,0.922,0.094,1.424,0.094c0.519,0,1.006-0.032,1.464-0.094
		c1.369-0.185,2.469-0.646,3.3-1.388c1.142-0.986,1.714-2.356,1.714-4.116c0-1.449-0.354-2.653-1.066-3.608
		c-0.679-0.955-1.665-1.603-2.96-1.942v2.314C735.776,271.773,735.854,272.049,736.01,272.234z M737.995,282.596h1.575v-2.546
		h-2.547v1.575C737.023,282.273,737.348,282.596,737.995,282.596z"/>
</g>
<g>
	<path d="M738.529,519.062h-4.675c-0.244,0-0.43-0.17-0.552-0.509c-0.123-0.34,0.229-0.738,1.063-1.204l4.164-2.266v-3.885
		l-7.588,4.439l-4.717-4.393v3.885l4.532,3.932h-6.612c-0.402,0-0.757,0.153-1.065,0.462c-0.308,0.308-0.462,0.679-0.462,1.108
		v1.666h15.912V519.062z M737.743,524.8c-0.679-1.141-2.111-1.713-4.302-1.713h-7.217v1.617c0,0.467,0.154,0.842,0.462,1.138
		c0.309,0.293,0.68,0.439,1.109,0.439h6.293c0.737,0,1.278,0.225,1.617,0.671c0.34,0.446,0.51,0.948,0.51,1.503
		c0,0.559-0.17,1.051-0.51,1.482c-0.339,0.43-0.88,0.646-1.617,0.646h-7.864v3.236h7.217c2.127,0,3.531-0.549,4.211-1.642
		c0.679-1.093,1.047-2.306,1.109-3.632C738.762,527.189,738.422,525.94,737.743,524.8z M735.982,561.067
		c0,0.647,0.324,0.971,0.972,0.971h1.575v-2.545h-2.547V561.067z M727.658,546.865c0.557,0.493,1.247,0.856,2.08,1.085
		c0.833,0.234,1.666,0.349,2.498,0.349c1.019,0,1.997-0.139,2.938-0.415c0.943-0.28,1.689-0.742,2.246-1.389
		c0.553-0.616,0.947-1.441,1.18-2.476c0.103-0.464,0.154-0.924,0.156-1.383c0.001-0.567-0.074-1.13-0.227-1.692
		c-0.248-1.141-0.881-2.083-1.896-2.822c-0.493-0.339-1.098-0.615-1.808-0.832c-0.706-0.218-1.556-0.324-2.542-0.324
		c-1.358,0-2.546,0.261-3.56,0.785c-1.143,0.557-1.947,1.422-2.409,2.59c-0.257,0.705-0.383,1.471-0.38,2.296
		c0.002,0.364,0.028,0.741,0.081,1.13C726.185,545.03,726.734,546.064,727.658,546.865z M728.767,541.868
		c0.154-0.462,0.511-0.869,1.066-1.224c0.553-0.356,1.386-0.533,2.499-0.533c1.232,0.032,2.127,0.233,2.68,0.601
		c0.557,0.37,0.904,0.797,1.042,1.275c0.063,0.217,0.095,0.435,0.093,0.649c0,0.255-0.047,0.508-0.14,0.759
		c-0.171,0.462-0.375,0.785-0.624,0.971c-0.557,0.462-1.536,0.727-2.937,0.786c-1.401,0.064-2.46-0.229-3.169-0.876
		c-0.215-0.217-0.393-0.557-0.533-1.019c-0.063-0.207-0.096-0.414-0.098-0.621C728.642,542.38,728.682,542.124,728.767,541.868z
		 M734.735,548.53v2.314c0,0.371,0.078,0.646,0.233,0.832c0.153,0.185,0.275,0.309,0.366,0.371c0.095,0.092,0.179,0.178,0.257,0.252
		c0.074,0.08,0.131,0.162,0.162,0.258c0.217,0.367,0.324,0.816,0.324,1.338c0,0.805-0.25,1.404-0.743,1.805
		c-0.584,0.556-1.587,0.832-3.003,0.832c-1.422,0-2.439-0.276-3.055-0.832c-0.432-0.432-0.648-0.988-0.648-1.663
		c0-0.741,0.217-1.31,0.648-1.713c0.153-0.154,0.386-0.308,0.693-0.462v-3.236c-0.896,0.244-1.681,0.647-2.359,1.199
		c-1.11,1.02-1.666,2.451-1.666,4.303c0,1.758,0.572,3.131,1.713,4.117c0.826,0.713,1.896,1.158,3.202,1.34
		c0.448,0.063,0.922,0.094,1.424,0.094c0.518,0,1.006-0.031,1.464-0.094c1.369-0.186,2.469-0.646,3.3-1.388
		c1.142-0.986,1.714-2.357,1.714-4.116c0-1.449-0.354-2.653-1.066-3.608C737.017,549.519,736.03,548.87,734.735,548.53z
		 M735.982,535.485c0,0.646,0.324,0.971,0.972,0.971h1.575v-2.546h-2.547V535.485z M439.387,544.541l-11.142-31.449h-8.825v45.521
		h7.792v-25.771l9.046,25.771h6.151l9.105-25.823v25.823h7.793v-45.521h-8.827L439.387,544.541z M612.953,431.167l26.5-30.058
		c2.293,4.541,4.262,9.504,5.914,14.906l40.434-96.94l-82.709,49.392c4.555,1.705,8.762,3.758,12.639,6.17l-47.674,54.074
		C568.057,428.711,591.277,455.753,612.953,431.167z M528.684,439.486l26.389,30.425c0.205,0.265,0.416,0.524,0.635,0.777
		c2.217,2.56,4.914,4.229,7.762,5.014c5.425,1.526,11.4-0.146,15.613-5.014c0.19-0.22,0.375-0.443,0.553-0.671l32.752-37.15
		c-21.676,24.587-44.896-2.455-44.896-2.455l-29.193-33.659c-1.209-1.766-2.71-3.309-4.48-4.523
		c-7.799-5.348-17.969-2.357-22.602,6.646l-19.598,38.088C507.42,409.582,528.684,439.486,528.684,439.486z M567.337,495.122
		c43.728,0,83.138,4.112,110.88,10.693c-8.467-3.568-18.834-6.709-30.664-9.294c1.859-0.395,3.691-1.145,5.406-2.32
		c7.799-5.348,10.389-17.089,5.756-26.092l-26.912-52.304l-24.227,27.479l22.781,44.27c1.5,2.916,3.586,5.19,5.981,6.766
		c-19.262-3.392-41.586-5.407-65.453-5.59l34.113-36.533l19.85,31.786l-19.002-36.947l-38.509,41.24l-38.509-41.24l-19.002,36.947
		l19.848-31.786l34.115,36.533c-23.24,0.178-45.023,2.092-63.936,5.324c1.25-1.272,2.353-2.779,3.246-4.516l24.734-48.069
		c0,0-21.264-29.905-37.068-2.521l-16.025,31.145c-4.633,9.003-2.042,20.744,5.758,26.092c0.764,0.524,1.555,0.945,2.358,1.311
		c-10.065,2.387-18.967,5.188-26.398,8.319C484.199,499.234,523.609,495.122,567.337,495.122z M558.6,528.543
		c-2.738-3.241-6.461-4.657-10.664-4.657l-0.26,0.002c-4.268,0.057-8.043,1.508-10.816,4.84c-3.035,3.647-3.955,8.429-3.955,13.059
		c0,4.56,0.922,9.235,3.906,12.827c2.781,3.347,6.559,4.822,10.865,4.842l0.088,0.001c3.557,0,6.824-1,9.573-3.281
		c2.678-2.223,4.225-5.117,4.655-8.571l0.286-2.292h-7.48l-0.271,1.724c-0.245,1.563-0.9,2.854-2.137,3.854
		c-1.254,1.015-2.74,1.398-4.34,1.398c-0.126,0-0.252-0.003-0.375-0.008c-1.998-0.083-3.607-0.839-4.898-2.438
		c-1.279-1.586-1.872-3.56-2.091-5.565h21.771v-3.162c0-1.051-0.049-2.108-0.164-3.157
		C561.922,534.543,560.863,531.221,558.6,528.543z M540.734,537.443c0.278-1.611,0.952-3.073,2.125-4.354
		c1.307-1.428,2.906-2.06,4.816-2.09l0.146-0.001c1.909,0,3.501,0.595,4.763,2.05c1.124,1.298,1.76,2.785,2.033,4.396H540.734z
		 M678.914,522.4h7.504v-9.309h-7.504V522.4z M658.324,523.887l-0.023-0.001c-4.846,0-8.932,1.83-11.902,5.689
		c-2.709,3.519-3.801,7.694-3.801,12.097c0,4.37,1.113,8.497,3.803,11.983c2.98,3.862,7.033,5.744,11.9,5.744h0.023
		c4.856-0.007,8.885-1.899,11.873-5.738c2.711-3.484,3.855-7.603,3.855-11.989c0-4.419-1.125-8.586-3.855-12.102
		C667.221,525.732,663.158,523.893,658.324,523.887z M664.232,549.089c-1.484,2.067-3.352,3.134-5.908,3.14l-0.023,0.001
		c-2.565,0-4.451-1.032-5.92-3.124c-1.564-2.228-2.162-4.796-2.162-7.492c0-2.699,0.566-5.313,2.152-7.537
		c1.477-2.068,3.387-3.078,5.93-3.078h0.023c2.537,0.006,4.432,1.022,5.908,3.082c1.596,2.226,2.199,4.82,2.199,7.533
		C666.432,544.314,665.82,546.875,664.232,549.089z M678.914,557.81c0,0.315-0.041,1.287-0.248,1.553
		c-0.184,0.217-0.516,0.229-0.772,0.194l-3.644-0.468v7.198l2.838,0.297l1.125,0.114c2.383,0.244,4.695-0.489,6.299-2.313
		c1.484-1.69,1.906-3.998,1.906-6.183v-33.578h-7.504V557.81z M707.113,523.887l-0.025-0.001c-4.844,0-8.93,1.83-11.9,5.689
		c-2.709,3.519-3.801,7.694-3.801,12.097c0,4.37,1.111,8.497,3.801,11.983c2.982,3.862,7.035,5.744,11.9,5.744h0.025
		c4.854-0.007,8.883-1.899,11.871-5.738c2.711-3.484,3.855-7.603,3.855-11.989c0-4.419-1.125-8.586-3.854-12.102
		C716.008,525.733,711.945,523.893,707.113,523.887z M713.021,549.089c-1.484,2.067-3.353,3.133-5.908,3.14l-0.025,0.001
		c-2.565,0-4.451-1.032-5.92-3.124c-1.565-2.228-2.162-4.796-2.162-7.492c0-2.699,0.566-5.313,2.154-7.537
		c1.475-2.068,3.385-3.078,5.928-3.078h0.025c2.537,0.007,4.43,1.022,5.906,3.082c1.598,2.226,2.199,4.82,2.199,7.533
		C715.219,544.314,714.609,546.875,713.021,549.089z M617.144,544.541l-11.142-31.449h-8.824v45.521h7.793v-25.771l9.045,25.771
		h6.15l9.105-25.823v25.823h7.793v-45.521h-8.828L617.144,544.541z M526.865,529.092c-1.059-1.75-2.566-3.078-4.42-3.948
		c-1.975-0.927-4.158-1.258-6.325-1.258c-2.351,0-4.668,0.456-6.733,1.612c-0.369,0.207-0.723,0.432-1.061,0.672v-1.545h-7.457
		v33.987h7.505v-19.648c0-2.143,0.429-4.362,1.932-5.981c1.367-1.475,3.17-1.985,5.145-1.985c1.353,0,3.438,0.172,4.329,1.372
		c0.927,1.25,1.057,4.048,1.057,5.529v20.713h7.505v-21.105c0-1.451,0.004-3.047-0.19-4.485
		C527.965,531.657,527.582,530.276,526.865,529.092z M578.014,544.33l-7.784-19.705h-8.099l0.164,0.412l11.668,29.301l-0.775,2.007
		c-0.328,0.848-0.848,1.9-1.502,2.55c-0.381,0.379-0.89,0.758-1.458,0.67l-1.136-0.175l-3.633-0.458v7.182l1.697,0.289
		c0.432,0.073,0.86,0.109,1.291,0.171c0.509,0.074,1.012,0.137,1.527,0.137c2.203,0,4.34-0.525,6.117-1.873
		c1.758-1.333,3.004-3.22,3.818-5.253l13.984-34.959h-8.103L578.014,544.33z M480.566,523.887l-0.023-0.001
		c-4.846,0-8.932,1.83-11.902,5.689c-2.709,3.519-3.801,7.694-3.801,12.097c0,4.37,1.113,8.497,3.803,11.983
		c2.98,3.862,7.033,5.744,11.9,5.744h0.023c4.856-0.007,8.885-1.899,11.873-5.738c2.711-3.484,3.854-7.603,3.854-11.989
		c0-4.419-1.124-8.586-3.854-12.102C489.463,525.733,485.4,523.893,480.566,523.887z M486.476,549.089
		c-1.484,2.067-3.353,3.133-5.909,3.14l-0.023,0.001c-2.565,0-4.451-1.032-5.92-3.124c-1.564-2.228-2.162-4.796-2.162-7.492
		c0-2.699,0.566-5.313,2.152-7.537c1.477-2.068,3.386-3.078,5.93-3.078h0.023c2.537,0.007,4.432,1.022,5.908,3.082
		c1.596,2.226,2.199,4.82,2.199,7.533C488.674,544.314,488.063,546.875,486.476,549.089z"/>
</g>
</svg>
